<svg fill="none" height="128" viewBox="0 0 128 128" width="128" xmlns="http://www.w3.org/2000/svg" xmlns:xlink="http://www.w3.org/1999/xlink"><clipPath id="a"><path d="m0 0h128v128h-128z"/></clipPath><g clip-path="url(#a)"><path d="m63.9985 127.997c35.3454 0 63.9985-28.6531 63.9985-63.9985s-28.6531-63.9985-63.9985-63.9985-63.9985 28.6531-63.9985 63.9985 28.6531 63.9985 63.9985 63.9985z" fill="#000"/><path d="m37.2414 75.6968h-3.1977l-5.2377-14.896c-.3909-1.134-.8083-2.8986-.8083-2.8986h-.0593s-.4174 1.7765-.8053 2.8986l-5.2881 14.896h-3.1385l7.7693-21.09h2.9608zm2.2858-21.09h2.9608v18.52h9.4392v2.57h-12.4zm15.0558 0h7.6982c3.8491 0 6.6323 2.5966 6.6323 6.5997 0 4.003-2.7684 6.7003-6.6234 6.7003h-4.7374v7.7989h-2.9608zm7.2334 10.7241c2.5374 0 4.0918-1.584 4.0918-4.1244s-1.5544-4.0327-4.0622-4.0327h-4.3051v8.1571zm10.1527-10.7241h2.9608v9.2585h10.9285v-9.2585h2.9608v21.09h-2.9608v-9.2704h-10.9344v9.2615h-2.9609zm37.6679 21.09h-3.198l-5.226-14.896c-.388-1.134-.808-2.8986-.808-2.8986h-.059s-.4177 1.7765-.8056 2.8986l-5.2881 14.9078h-3.1236l7.7662-21.09h2.9611z" fill="#fff"/></g></svg>