<svg fill="none" height="128" viewBox="0 0 312 128" width="312" xmlns="http://www.w3.org/2000/svg" xmlns:xlink="http://www.w3.org/1999/xlink"><linearGradient id="a" gradientUnits="userSpaceOnUse" x1="16.4894" x2="6.59089" y1="65.5528" y2="82.6978"><stop offset="0"/><stop offset=".923" stop-color="#505152"/></linearGradient><clipPath id="b"><path d="m0 0h312v128h-312z"/></clipPath><g clip-path="url(#b)"><path d="m11.349 62.6587c-.1137-.1488-.2638-.2657-.4359-.3395-.172-.0737-.3602-.1019-.5463-.0816-.1861.0202-.3639.0881-.51608.1971-.1522.109-.27371.2554-.35278.4251l-9.379606 18.7533c-.0854472.1709-.12579068.3608-.11720038.5517.00859031.1909.06582928.3764.16628238.539.100453.1625.240786.2967.407675.3898.166889.093.354794.1419.545879.1419h13.06063c.2092.0049.4153-.0511.5932-.1611.178-.11.3202-.2694.4094-.4586 2.8174-5.8218 1.1099-14.6737-3.8352-19.9571z" fill="url(#a)"/><g fill="#000"><path d="m18.2285 45.6016c-2.3372 3.5961-3.6991 7.7381-3.9523 12.0194-.2532 4.2814.6111 8.555 2.5081 12.4015l6.2967 12.5933c.0931.1862.2362.3428.4133.4523.1771.1094.3811.1674.5893.1674h13.0583c.1911 0 .379-.0489.5459-.1419.1668-.0931.3072-.2272.4076-.3898.1005-.1625.1577-.3481.1663-.539.0086-.1908-.0317-.3808-.1172-.5517 0 0-17.5678-35.1396-18.0093-36.0185-.0873-.1789-.2232-.3296-.3922-.4348-.1691-.1051-.3643-.1605-.5634-.1598-.199.0007-.3938.0576-.5621.164-.1682.1064-.3031.2581-.389.4376z"/><path d="m171.395 60.6382c0 4.6437 2.154 8.3306 10.581 9.9583 5.027 1.0554 6.08 1.8669 6.08 3.5426 0 1.6277-1.056 2.6813-4.596 2.6813-4.28-.0769-8.474-1.2118-12.209-3.3034v7.5637c2.538 1.2448 5.889 2.6333 12.113 2.6333 8.809 0 12.304-3.9285 12.304-9.7666m0 0c0-5.5057-2.92-8.0914-11.155-9.8622-4.548-1.0055-5.649-2.0105-5.649-3.447 0-1.8177 1.628-2.5852 4.644-2.5852 3.638 0 7.229 1.1012 10.628 2.6332v-7.2295c-3.259-1.4834-6.809-2.2194-10.389-2.1542-8.139 0-12.352 3.5427-12.352 9.3357"/><path d="m284.568 51.781v31.4545h6.703v-23.9858l2.824 6.3671 9.48 17.6187h8.426v-31.4545h-6.702v20.2995l-2.538-5.8891-7.612-14.4104z"/><path d="m241.938 51.781h-7.325v31.4545h7.325z"/><path d="m226.161 73.9474c0-5.5057-2.92-8.0914-11.155-9.8622-4.548-1.0055-5.649-2.0105-5.649-3.447 0-1.8177 1.627-2.5852 4.644-2.5852 3.638 0 7.229 1.1012 10.628 2.6332v-7.2295c-3.259-1.4834-6.809-2.2194-10.389-2.1542-8.139 0-12.352 3.5427-12.352 9.3357 0 4.6437 2.154 8.3306 10.58 9.9583 5.028 1.0554 6.081 1.8669 6.081 3.5426 0 1.6277-1.056 2.6813-4.597 2.6813-4.279-.0769-8.473-1.2118-12.208-3.3034v7.5637c2.538 1.2448 5.889 2.6333 12.113 2.6333 8.809 0 12.304-3.9285 12.304-9.7666z"/><path d="m114.492 51.781v31.4545h15.056l2.37-6.7985h-10.054v-24.656z"/><path d="m84.7458 51.781v6.798h8.139v24.6565h7.3722v-24.6565h8.714v-6.798z"/><path d="m74.0552 51.781h-9.6622l-10.9686 31.4545h8.3764l1.555-5.2975c3.8296 1.1245 7.9017 1.1245 11.7314 0l1.5549 5.2975h8.3782zm-4.8314 20.4848c-1.3644-.0001-2.7219-.1954-4.031-.5799l4.031-13.7267 4.0311 13.7314c-1.3094.3829-2.6668.5766-4.0311.5752z"/><path d="m155.503 51.781h-9.661l-10.969 31.4545h8.378l1.555-5.2975c3.83 1.1245 7.902 1.1245 11.732 0l1.555 5.2975h8.378zm-4.83 20.4848c-1.365-.0001-2.722-.1954-4.031-.5799l4.031-13.7267 4.031 13.7314c-1.31.3829-2.667.5766-4.031.5752z"/><path d="m268.334 51.781h-9.662l-10.968 31.4545h8.378l1.555-5.2975c3.829 1.1245 7.901 1.1245 11.731 0l1.555 5.2975h8.379zm-4.834 20.4848c-1.364-.0001-2.722-.1954-4.031-.5799l4.031-13.7267 4.031 13.7314c-1.309.3829-2.667.5766-4.031.5752z"/></g></g></svg>