<svg fill="none" height="128" viewBox="0 0 312 128" width="312" xmlns="http://www.w3.org/2000/svg" xmlns:xlink="http://www.w3.org/1999/xlink"><clipPath id="a"><path d="m80 40h151.241v48h-151.241z"/></clipPath><g clip-path="url(#a)" clip-rule="evenodd" fill="#000" fill-rule="evenodd"><path d="m80 42.6226v43.3623h20.745c9.122 0 20.805-5.8124 20.805-21.7065 0-17.3806-13.58-21.6558-25.989-21.6558zm15.3282 13.3944h2.6728c4.19 0 7.76 3.6142 7.816 8.474v.0102c-.056 4.8598-3.241 8.4639-7.4313 8.4639h-3.0575z"/><path d="m170.677 42.6226v43.3647h28.713v-13.7114h-13.521v-29.6533z"/><path d="m157.033 49.2056-21.211 13.373-3.695-2.4853.009.0011 21.695-13.8174.041.0283-9.921-6.3061-37.787 24.0324 37.98 23.9692 37.524-23.9101-10.867-6.6345-21.631 13.6286-3.635-2.4757 21.025-13.3567z"/><path d="m202.122 42.6187v43.3182h28.713v-13.6609h-13.521v-29.6573z"/><path d="m224.851 42.55h2.552v.607h-.938v2.7455h-.676v-2.7455h-.938z"/><path d="m229.185 45.5073-.818-2.0268v2.3925h-.629v-3.321h1.037l.714 2.0211.715-2.0211h1.037v3.321h-.63v-2.3925l-.818 2.0268z"/></g></svg>