<svg fill="none" height="128" viewBox="0 0 312 128" width="312" xmlns="http://www.w3.org/2000/svg" xmlns:xlink="http://www.w3.org/1999/xlink"><clipPath id="a"><path d="m68 33h176v61h-176z"/></clipPath><g clip-path="url(#a)"><path d="m98.6087 71.125c-4.2263 0-7.6522-3.4137-7.6522-7.625 0-4.2109 3.4259-7.625 7.6522-7.625s7.6523 3.4141 7.6523 7.625c0 4.2113-3.426 7.625-7.6523 7.625z" fill="#464646"/><path d="m129.217 84.4688h-49.7387c-1.0565 0-1.9131-.8537-1.9131-1.9063v-34.3125h-9.5652v36.2188c0 5.2641 4.2823 9.5312 9.5652 9.5312h42.0868c5.283 0 9.565-4.2671 9.565-9.5312z" fill="#464646"/><g fill="#000"><path d="m119.652 78.75h9.565v-36.2188c0-5.2641-4.282-9.5312-9.565-9.5312h-42.0868c-5.2829 0-9.5652 4.2671-9.5652 9.5312h49.739c1.057 0 1.913.8536 1.913 1.9063z"/><path d="m151.101 74.3027v-31.7715h-8.492v31.7715 8.2598h8.492 18.29v-8.2598z"/><path d="m198.927 74.3027v-31.7715h-8.492v31.7715 8.2598h8.492 18.29v-8.2598z"/><path d="m230.852 42.5312h-8.138-13.149v8.2602h13.149v31.7711h8.138v-31.7711h13.148v-8.2602z"/><path d="m182.783 74.3027v-31.7715h-7.653v31.7715 8.2598h7.653z"/></g></g></svg>