<svg fill="none" height="128" viewBox="0 0 312 128" width="312" xmlns="http://www.w3.org/2000/svg" xmlns:xlink="http://www.w3.org/1999/xlink"><clipPath id="a"><path d="m21 35h269v57h-269z"/></clipPath><g clip-path="url(#a)"><path d="m58.6695 79.5374h12.5605v-8.8065h-16.2352l-8.8858 8.8065-8.8739-8.8065h-16.2351v8.8065h12.5605l12.5485 12.465z" fill="#bababa"/><path d="m71.23 53.1062h-50.23v8.8159h50.23z" fill="#d7d7d7"/><path d="m71.23 35.4839h-50.23v8.8158h50.23z" fill="#bababa"/><g fill="#000"><path d="m91.1992 35.4839h7.982v43.2462h-7.982z"/><path d="m111.618 77.4862c-2.467-1.3301-4.535-3.2846-5.994-5.6648-1.447-2.3934-2.212-5.1323-2.212-7.9237 0-2.7913.765-5.5302 2.212-7.9237 1.455-2.3837 3.524-4.3392 5.994-5.6648 2.518-1.3589 5.339-2.0708 8.206-2.0708 2.866 0 5.687.7119 8.205 2.0708 2.465 1.3318 4.532 3.2859 5.991 5.6648 1.448 2.3935 2.212 5.1324 2.212 7.9237 0 2.7914-.764 5.5303-2.212 7.9237-1.456 2.3818-3.523 4.3368-5.991 5.6648-2.518 1.3604-5.339 2.0731-8.205 2.0731-2.867 0-5.688-.7127-8.206-2.0731zm12.396-6.3068c1.272-.6969 2.331-1.7221 3.064-2.967.753-1.3182 1.149-2.8076 1.149-4.3229s-.396-3.0048-1.149-4.323c-.729-1.2461-1.784-2.273-3.054-2.9717-1.291-.6925-2.735-1.0551-4.203-1.0551-1.467 0-2.912.3626-4.203 1.0551-1.267.6994-2.321 1.7263-3.049 2.9717-.753 1.3182-1.148 2.8077-1.148 4.323s.395 3.0047 1.148 4.3229c.73 1.2463 1.785 2.2739 3.054 2.9741 1.291.6925 2.736 1.055 4.203 1.055s2.912-.3625 4.203-1.055z"/><path d="m140.461 35.4839h7.985v25.7655l10.405-12.1983h9.495l-11.735 13.7561 12.589 15.9135h-10.228l-10.526-13.7443v13.7561h-7.985z"/><path d="m176.742 77.6373c-2.275-1.3182-4.155-3.214-5.447-5.4925-1.389-2.384-2.086-5.129-2.086-8.2612-.023-2.7491.666-5.458 2.001-7.8671 1.278-2.3453 3.156-4.3147 5.446-5.7096 2.273-1.3882 4.895-2.1122 7.564-2.0889 1.81-.0226 3.608.3028 5.294.9583 1.586.6294 2.807 1.4948 3.665 2.5963v-2.712h7.984v29.6695h-7.984v-2.6978c-1.167 1.0999-2.517 1.9911-3.991 2.6341-1.427.5972-3.227.9017-5.449.9017-2.464-.0165-4.879-.6828-6.997-1.9308zm14.551-7.7891c1.494-1.6051 2.24-3.5807 2.24-5.9457 0-2.3651-.746-4.3549-2.238-5.9599-1.491-1.6051-3.467-2.4076-5.927-2.4076-2.459 0-4.443.7978-5.946 2.4029-1.503 1.605-2.24 3.583-2.24 5.948 0 2.3651.747 4.3407 2.24 5.9457 1.494 1.6051 3.466 2.4052 5.946 2.4052 2.481 0 4.431-.8025 5.927-2.4004z"/><path d="m206.964 35.4839h7.985v43.2462h-7.985z"/><path d="m221.19 43.5303c-.471-.4505-.844-.9927-1.094-1.5925-.251-.5999-.374-1.2445-.362-1.8937-.012-.6619.111-1.3193.361-1.9329.25-.6137.623-1.1709 1.095-1.6383.449-.4732.992-.8485 1.595-1.102.604-.2536 1.253-.3799 1.908-.3709.67-.0112 1.334.1136 1.953.3669s1.179.6297 1.646 1.106c.479.4633.859 1.0192 1.114 1.6333.255.6142.381 1.2736.37 1.9379.008.6512-.119 1.2972-.375 1.8971-.255.6-.633 1.141-1.109 1.5891-.471.4688-1.033.8384-1.651 1.0866s-1.281.3699-1.948.3579c-.652.0077-1.299-.1164-1.901-.3647-.602-.2484-1.148-.6158-1.602-1.0798zm-.431 5.5208h7.985v29.6696h-7.985z"/><path d="m234.2 76.6766 1.81-7.4516h.361c2.624 2.0032 5.308 3.004 8.051 3.0024 1.131 0 2.05-.2093 2.759-.6279.331-.1775.606-.4432.793-.7672.188-.324.28-.6934.268-1.0668 0-.8355-.412-1.52-1.244-2.0417-.832-.5216-2.378-1.1589-4.633-1.9189-2.298-.7601-4.089-1.8623-5.352-3.3045-1.255-1.4039-1.934-3.224-1.902-5.1007 0-2.7663 1.034-4.9874 3.12-6.6704 2.086-1.6829 4.719-2.5114 7.906-2.5114 1.445-.0169 2.887.1328 4.298.4461 1.259.3045 2.462.8014 3.567 1.4729l.307 7.5531h-.421c-1.228-.8023-2.525-1.4951-3.877-2.07-1.211-.4737-2.503-.7094-3.805-.694-.866-.0355-1.725.1723-2.478.5996-.642.3989-.968.9205-.968 1.5578 0 .845.402 1.5295 1.215 2.07s2.317 1.1802 4.538 1.9473c2.538.8474 4.472 1.8623 5.782 3.0685 1.311 1.2061 1.962 3.0684 1.962 5.5869 0 2.0818-.523 3.8647-1.57 5.3485-1.042 1.4709-2.479 2.6229-4.148 3.3258-1.787.756-3.713 1.1346-5.655 1.1117-4.194.0236-7.747-.9371-10.684-2.8655z"/><path d="m267.483 77.4555c-2.45-1.3498-4.488-3.3325-5.896-5.738-1.439-2.4486-2.179-5.2401-2.14-8.0747-.033-2.7444.667-5.4485 2.031-7.8364 1.332-2.3258 3.277-4.2476 5.627-5.5586 2.401-1.3532 5.112-2.0299 8.135-2.0299 3.063 0 5.714.7081 7.953 2.1243 2.198 1.3767 3.96 3.34 5.085 5.6649 1.152 2.3794 1.741 4.9887 1.722 7.6286v2.3462h-22.937c.489 2.2423 1.522 3.9441 3.12 5.1031 1.598 1.1589 3.706 1.7372 6.329 1.7372 3.858.0476 7.594-1.3459 10.465-3.904h.852l-.305 7.5059c-3.519 2.0056-7.499 3.0809-11.557 3.1227-3.161.0189-5.984-.6845-8.484-2.0913zm14.523-16.8717c-.2-1.8057-.951-3.2101-2.269-4.2486-1.318-1.0386-2.918-1.5083-4.814-1.5083-1.741-.0348-3.447.4811-4.873 1.4729-1.389.9771-2.326 2.4122-2.814 4.2934z"/></g></g></svg>