<svg width="175" height="48" viewBox="0 0 175 48" fill="none" xmlns="http://www.w3.org/2000/svg">
<path d="M0 0.548828H5V29.5488H0V0.548828Z" fill="#00669A"/>
<path d="M10 0.548828H15V29.5488H10V0.548828Z" fill="#CB3694"/>
<path d="M20 0.548828H25V29.5488H20V0.548828Z" fill="#CC3434"/>
<path d="M30 0.548828H35V29.5488H30V0.548828Z" fill="#FECD0F"/>
<path d="M40 0.548828H45V29.5488H40V0.548828Z" fill="#089847"/>
<path d="M27.7498 34.7988V44.5488H26.5691V34.7988H27.7498Z" fill="black"/>
<path d="M154.818 41.1909V41.0449C154.818 40.5498 154.89 40.0907 155.034 39.6675C155.178 39.2401 155.385 38.8698 155.656 38.5566C155.927 38.2393 156.255 37.9938 156.64 37.8203C157.025 37.6426 157.457 37.5537 157.935 37.5537C158.417 37.5537 158.851 37.6426 159.236 37.8203C159.625 37.9938 159.956 38.2393 160.226 38.5566C160.501 38.8698 160.711 39.2401 160.855 39.6675C160.999 40.0907 161.071 40.5498 161.071 41.0449V41.1909C161.071 41.686 160.999 42.1452 160.855 42.5684C160.711 42.9915 160.501 43.3618 160.226 43.6792C159.956 43.9924 159.628 44.2378 159.242 44.4155C158.862 44.589 158.43 44.6758 157.948 44.6758C157.465 44.6758 157.031 44.589 156.646 44.4155C156.261 44.2378 155.931 43.9924 155.656 43.6792C155.385 43.3618 155.178 42.9915 155.034 42.5684C154.89 42.1452 154.818 41.686 154.818 41.1909ZM155.992 41.0449V41.1909C155.992 41.5337 156.033 41.8574 156.113 42.1621C156.193 42.4626 156.314 42.7292 156.475 42.9619C156.64 43.1947 156.845 43.3787 157.091 43.5142C157.336 43.6453 157.622 43.7109 157.948 43.7109C158.269 43.7109 158.551 43.6453 158.792 43.5142C159.037 43.3787 159.24 43.1947 159.401 42.9619C159.562 42.7292 159.683 42.4626 159.763 42.1621C159.848 41.8574 159.89 41.5337 159.89 41.1909V41.0449C159.89 40.7064 159.848 40.3869 159.763 40.0864C159.683 39.7817 159.56 39.513 159.395 39.2803C159.234 39.0433 159.031 38.8571 158.785 38.7217C158.544 38.5863 158.261 38.5186 157.935 38.5186C157.613 38.5186 157.33 38.5863 157.084 38.7217C156.843 38.8571 156.64 39.0433 156.475 39.2803C156.314 39.513 156.193 39.7817 156.113 40.0864C156.033 40.3869 155.992 40.7064 155.992 41.0449Z" fill="black"/>
<path d="M133.062 0.400391H140.089V19.439C140.089 21.7078 139.615 23.6297 138.667 25.2046C137.72 26.7661 136.392 27.9473 134.683 28.748C132.975 29.5488 130.966 29.9492 128.657 29.9492C126.375 29.9492 124.367 29.5488 122.631 28.748C120.91 27.9473 119.562 26.7661 118.588 25.2046C117.627 23.6297 117.146 21.7078 117.146 19.439V0.400391H124.193V19.439C124.193 20.6401 124.367 21.6211 124.714 22.3818C125.061 23.1292 125.568 23.6764 126.235 24.0234C126.902 24.3704 127.71 24.5439 128.657 24.5439C129.618 24.5439 130.426 24.3704 131.08 24.0234C131.734 23.6764 132.228 23.1292 132.561 22.3818C132.895 21.6211 133.062 20.6401 133.062 19.439V0.400391Z" fill="black"/>
<path d="M166.497 21.8013C166.497 21.3475 166.431 20.9404 166.297 20.5801C166.164 20.2064 165.917 19.8594 165.557 19.5391C165.196 19.2188 164.676 18.8984 163.995 18.5781C163.328 18.2445 162.447 17.8975 161.352 17.5371C160.071 17.11 158.837 16.6296 157.649 16.0957C156.461 15.5485 155.4 14.9146 154.466 14.1938C153.531 13.4598 152.791 12.6056 152.244 11.6313C151.696 10.6437 151.423 9.49593 151.423 8.18799C151.423 6.93343 151.703 5.80566 152.264 4.80469C152.824 3.79036 153.605 2.92952 154.606 2.22217C155.62 1.50146 156.808 0.954264 158.169 0.580566C159.531 0.193522 161.019 0 162.634 0C164.769 0 166.651 0.373698 168.279 1.12109C169.921 1.85514 171.202 2.90283 172.123 4.26416C173.057 5.61214 173.524 7.20703 173.524 9.04883H166.538C166.538 8.31478 166.384 7.66748 166.077 7.10693C165.783 6.54639 165.336 6.10596 164.736 5.78564C164.135 5.46533 163.381 5.30518 162.474 5.30518C161.593 5.30518 160.852 5.43864 160.251 5.70557C159.651 5.97249 159.197 6.33285 158.89 6.78662C158.583 7.22705 158.43 7.71419 158.43 8.24805C158.43 8.68848 158.55 9.08887 158.79 9.44922C159.044 9.79622 159.397 10.1232 159.851 10.4302C160.318 10.7371 160.879 11.0308 161.533 11.311C162.2 11.5913 162.947 11.8649 163.775 12.1318C165.323 12.6257 166.698 13.1795 167.899 13.7935C169.113 14.394 170.134 15.0814 170.962 15.8555C171.803 16.6162 172.437 17.4837 172.864 18.458C173.304 19.4323 173.524 20.5334 173.524 21.7612C173.524 23.0692 173.271 24.2303 172.764 25.2446C172.256 26.259 171.529 27.1198 170.581 27.8271C169.634 28.5212 168.499 29.0483 167.178 29.4087C165.857 29.769 164.382 29.9492 162.754 29.9492C161.259 29.9492 159.784 29.7624 158.33 29.3887C156.888 29.0016 155.58 28.4144 154.406 27.627C153.231 26.8262 152.29 25.8052 151.583 24.564C150.889 23.3094 150.542 21.8213 150.542 20.0996H157.589C157.589 20.9538 157.702 21.6745 157.929 22.2617C158.156 22.849 158.49 23.3228 158.93 23.6831C159.371 24.0301 159.911 24.2837 160.552 24.4438C161.192 24.5907 161.926 24.6641 162.754 24.6641C163.648 24.6641 164.369 24.5373 164.916 24.2837C165.463 24.0168 165.864 23.6698 166.117 23.2427C166.371 22.8022 166.497 22.3218 166.497 21.8013Z" fill="black"/>
<path fill-rule="evenodd" clip-rule="evenodd" d="M133.221 44.4346C133.61 44.5954 134.044 44.6758 134.522 44.6758C134.975 44.6758 135.367 44.6123 135.697 44.4854C136.031 44.3584 136.312 44.1934 136.541 43.9902C136.77 43.7871 136.958 43.5734 137.106 43.3491L136.395 42.7842C136.179 43.0677 135.927 43.2941 135.64 43.4634C135.352 43.6326 135.001 43.7173 134.586 43.7173C134.264 43.7173 133.977 43.6559 133.723 43.5332C133.473 43.4105 133.259 43.2412 133.082 43.0254C132.908 42.8096 132.775 42.5599 132.682 42.2764C132.601 42.0149 132.557 41.7377 132.549 41.4448H137.195V40.918C137.195 40.4355 137.14 39.9912 137.03 39.585C136.92 39.1745 136.75 38.819 136.522 38.5186C136.293 38.2139 135.999 37.9769 135.64 37.8076C135.284 37.6383 134.861 37.5537 134.37 37.5537C133.985 37.5537 133.613 37.632 133.253 37.7886C132.893 37.9451 132.572 38.1758 132.288 38.4805C132.005 38.7852 131.78 39.1576 131.615 39.5977C131.45 40.0335 131.368 40.5308 131.368 41.0894V41.356C131.368 41.8384 131.442 42.2827 131.59 42.689C131.738 43.0952 131.95 43.4465 132.225 43.7427C132.504 44.0389 132.836 44.2695 133.221 44.4346ZM132.584 40.4863H136.02V40.3975C136.004 40.0928 135.94 39.7966 135.83 39.5088C135.724 39.221 135.555 38.9841 135.322 38.7979C135.089 38.6117 134.772 38.5186 134.37 38.5186C134.103 38.5186 133.858 38.5757 133.634 38.6899C133.409 38.8 133.217 38.965 133.056 39.1851C132.895 39.4051 132.77 39.6738 132.682 39.9912C132.639 40.1448 132.606 40.3099 132.584 40.4863Z" fill="black"/>
<path fill-rule="evenodd" clip-rule="evenodd" d="M80.1994 44.4346C80.5888 44.5954 81.0225 44.6758 81.5007 44.6758C81.9535 44.6758 82.3449 44.6123 82.675 44.4854C83.0093 44.3584 83.2907 44.1934 83.5193 43.9902C83.7478 43.7871 83.9361 43.5734 84.0842 43.3491L83.3733 42.7842C83.1574 43.0677 82.9056 43.2941 82.6179 43.4634C82.3301 43.6326 81.9789 43.7173 81.5642 43.7173C81.2426 43.7173 80.9548 43.6559 80.7009 43.5332C80.4512 43.4105 80.2375 43.2412 80.0598 43.0254C79.8863 42.8096 79.753 42.5599 79.6599 42.2764C79.5791 42.0149 79.5351 41.7377 79.5277 41.4448H84.1731V40.918C84.1731 40.4355 84.118 39.9912 84.008 39.585C83.898 39.1745 83.7287 38.819 83.5002 38.5186C83.2717 38.2139 82.9776 37.9769 82.6179 37.8076C82.2624 37.6383 81.8392 37.5537 81.3484 37.5537C80.9633 37.5537 80.5909 37.632 80.2312 37.7886C79.8715 37.9451 79.5499 38.1758 79.2663 38.4805C78.9828 38.7852 78.7585 39.1576 78.5935 39.5977C78.4284 40.0335 78.3459 40.5308 78.3459 41.0894V41.356C78.3459 41.8384 78.42 42.2827 78.5681 42.689C78.7162 43.0952 78.9278 43.4465 79.2029 43.7427C79.4821 44.0389 79.8143 44.2695 80.1994 44.4346ZM79.5621 40.4863H82.9987V40.3975C82.9818 40.0928 82.9183 39.7966 82.8083 39.5088C82.7025 39.221 82.5333 38.9841 82.3005 38.7979C82.0678 38.6117 81.7504 38.5186 81.3484 38.5186C81.0818 38.5186 80.8363 38.5757 80.612 38.6899C80.3877 38.8 80.1952 38.965 80.0344 39.1851C79.8736 39.4051 79.7487 39.6738 79.6599 39.9912C79.6169 40.1448 79.5843 40.3099 79.5621 40.4863Z" fill="black"/>
<path fill-rule="evenodd" clip-rule="evenodd" d="M58.7738 37.6807V42.6746C58.6451 42.9717 58.4441 43.2114 58.1708 43.3936C57.8788 43.584 57.4831 43.6792 56.9838 43.6792C56.823 43.6792 56.6664 43.6559 56.514 43.6094C56.3659 43.5628 56.2305 43.4824 56.1078 43.3682C55.9893 43.2497 55.8941 43.091 55.8222 42.8921C55.7544 42.689 55.7206 42.4329 55.7206 42.124V37.6807H54.5463V42.1113C54.5463 42.5684 54.5992 42.9598 54.705 43.2856C54.815 43.6115 54.9694 43.876 55.1683 44.0791C55.3672 44.2822 55.6042 44.4325 55.8793 44.5298C56.1586 44.6271 56.4654 44.6758 56.7997 44.6758C57.2906 44.6758 57.7074 44.5975 58.0502 44.4409C58.3537 44.2985 58.6058 44.108 58.8065 43.8694L58.8309 44.5488H59.9545V37.6807H58.7738Z" fill="black"/>
<path fill-rule="evenodd" clip-rule="evenodd" d="M39.5706 44.5488V39.6474C39.6451 39.4994 39.7318 39.3622 39.8309 39.2358C40.0044 39.02 40.2096 38.8507 40.4466 38.728C40.6878 38.6053 40.9544 38.5439 41.2464 38.5439C41.5426 38.5439 41.7923 38.5947 41.9954 38.6963C42.1986 38.7936 42.353 38.9523 42.4588 39.1724C42.5646 39.3882 42.6175 39.6759 42.6175 40.0356V44.5488H43.7982V40.0483C43.7982 39.5955 43.7474 39.2126 43.6458 38.8994C43.5443 38.582 43.3961 38.3239 43.2015 38.125C43.0111 37.9261 42.7804 37.7822 42.5096 37.6934C42.2388 37.6003 41.9341 37.5537 41.5955 37.5537C41.1808 37.5537 40.8021 37.6362 40.4593 37.8013C40.1208 37.9621 39.8288 38.1906 39.5833 38.4868C39.5701 38.5028 39.557 38.5189 39.5441 38.5351L39.5071 37.6807H38.3963V44.5488H39.5706Z" fill="black"/>
<path fill-rule="evenodd" clip-rule="evenodd" d="M16.2146 44.4346C16.6039 44.5954 17.0376 44.6758 17.5158 44.6758C17.9686 44.6758 18.3601 44.6123 18.6901 44.4854C19.0244 44.3584 19.3059 44.1934 19.5344 43.9902C19.7629 43.7871 19.9512 43.5734 20.0993 43.3491L19.3884 42.7842C19.1726 43.0677 18.9208 43.2941 18.633 43.4634C18.3452 43.6326 17.994 43.7173 17.5793 43.7173C17.2577 43.7173 16.9699 43.6559 16.716 43.5332C16.4663 43.4105 16.2526 43.2412 16.0749 43.0254C15.9014 42.8096 15.7681 42.5599 15.675 42.2764C15.5943 42.0149 15.5502 41.7377 15.5428 41.4448H20.1882V40.918C20.1882 40.4355 20.1332 39.9912 20.0231 39.585C19.9131 39.1745 19.7438 38.819 19.5153 38.5186C19.2868 38.2139 18.9927 37.9769 18.633 37.8076C18.2775 37.6383 17.8544 37.5537 17.3635 37.5537C16.9784 37.5537 16.606 37.632 16.2463 37.7886C15.8866 37.9451 15.565 38.1758 15.2814 38.4805C14.9979 38.7852 14.7736 39.1576 14.6086 39.5977C14.4436 40.0335 14.361 40.5308 14.361 41.0894V41.356C14.361 41.8384 14.4351 42.2827 14.5832 42.689C14.7313 43.0952 14.9429 43.4465 15.218 43.7427C15.4973 44.0389 15.8295 44.2695 16.2146 44.4346ZM15.5772 40.4863H19.0139V40.3975C18.9969 40.0928 18.9335 39.7966 18.8234 39.5088C18.7176 39.221 18.5484 38.9841 18.3156 38.7979C18.0829 38.6117 17.7655 38.5186 17.3635 38.5186C17.0969 38.5186 16.8514 38.5757 16.6271 38.6899C16.4029 38.8 16.2103 38.965 16.0495 39.1851C15.8887 39.4051 15.7639 39.6738 15.675 39.9912C15.632 40.1448 15.5994 40.3099 15.5772 40.4863Z" fill="black"/>
<path fill-rule="evenodd" clip-rule="evenodd" d="M4.43813 38.582V37.6807H3.1559V36.0112H1.98158V37.6807H0.724747V38.582H1.98158V42.8413C1.98158 43.2983 2.05141 43.6623 2.19106 43.9331C2.33494 44.1997 2.52748 44.3901 2.76869 44.5044C3.0099 44.6187 3.27439 44.6758 3.56215 44.6758C3.77374 44.6758 3.95359 44.661 4.1017 44.6313C4.25404 44.606 4.37676 44.5784 4.46986 44.5488L4.46352 43.5903C4.4085 43.603 4.32598 43.62 4.21596 43.6411C4.11016 43.658 4.0086 43.6665 3.91127 43.6665C3.78009 43.6665 3.65736 43.6475 3.54311 43.6094C3.42885 43.5713 3.33575 43.493 3.26381 43.3745C3.19187 43.256 3.1559 43.0804 3.1559 42.8477V38.582H4.43813Z" fill="black"/>
<path fill-rule="evenodd" clip-rule="evenodd" d="M87.9344 29.5488H80.3871L91.0975 0.400391H97.724L108.494 29.5488H100.927L99.2414 24.1035H89.6154L87.9344 29.5488ZM94.4216 8.53395L97.562 18.6782H91.2901L94.4216 8.53395Z" fill="black"/>
<path d="M66.4102 29.5488H59.3834V5.82568H50.815V0.400391H75.1788V5.82568H66.4102V29.5488Z" fill="black"/>
<path d="M7.83488 44.5488H6.66057V34.7988H7.83488V38.5022L7.84758 38.4868C8.09302 38.1906 8.38501 37.9621 8.72356 37.8013C9.06633 37.6362 9.44507 37.5537 9.85979 37.5537C10.1983 37.5537 10.503 37.6003 10.7738 37.6934C11.0447 37.7822 11.2753 37.9261 11.4657 38.125C11.6604 38.3239 11.8085 38.582 11.9101 38.8994C12.0116 39.2126 12.0624 39.5955 12.0624 40.0483V44.5488H10.8818V40.0356C10.8818 39.6759 10.8289 39.3882 10.7231 39.1724C10.6173 38.9523 10.4628 38.7936 10.2597 38.6963C10.0566 38.5947 9.80689 38.5439 9.51066 38.5439C9.21867 38.5439 8.95207 38.6053 8.71086 38.728C8.47388 38.8507 8.26864 39.02 8.09514 39.2358C7.99606 39.3622 7.90931 39.4994 7.83488 39.6474V44.5488Z" fill="black"/>
<path fill-rule="evenodd" clip-rule="evenodd" d="M34.5298 39.8389C34.5298 39.568 34.4748 39.3332 34.3648 39.1343C34.259 38.9312 34.0982 38.7746 33.8824 38.6646C33.6665 38.5545 33.3999 38.4995 33.0826 38.4995C32.7863 38.4995 32.5261 38.5503 32.3018 38.6519C32.0817 38.7534 31.9082 38.8867 31.7813 39.0518C31.6586 39.2168 31.5972 39.3945 31.5972 39.585H30.4229C30.4229 39.3395 30.4864 39.0962 30.6133 38.855C30.7403 38.6138 30.9222 38.3958 31.1592 38.2012C31.4004 38.0023 31.6882 37.8457 32.0225 37.7314C32.361 37.613 32.7377 37.5537 33.1524 37.5537C33.6517 37.5537 34.0918 37.6383 34.4727 37.8076C34.8578 37.9769 35.1582 38.2329 35.3741 38.5757C35.5941 38.9142 35.7041 39.3395 35.7041 39.8516V43.0508C35.7041 43.2793 35.7232 43.5226 35.7613 43.7808C35.8036 44.0389 35.8649 44.2611 35.9454 44.4473V44.5488H34.7203C34.661 44.4134 34.6145 44.2336 34.5806 44.0093C34.5712 43.9458 34.5631 43.8837 34.5563 43.8229C34.5004 43.8815 34.4408 43.9394 34.3775 43.9966C34.1617 44.1912 33.9035 44.3542 33.6031 44.4854C33.3068 44.6123 32.9725 44.6758 32.6001 44.6758C32.1346 44.6758 31.7263 44.5848 31.375 44.4028C31.028 44.2209 30.7572 43.9775 30.5625 43.6729C30.3721 43.3639 30.2769 43.019 30.2769 42.6382C30.2769 42.27 30.3488 41.9463 30.4927 41.667C30.6366 41.3835 30.844 41.1486 31.1148 40.9624C31.3856 40.772 31.7115 40.6281 32.0923 40.5308C32.4732 40.4334 32.8985 40.3848 33.3682 40.3848H34.5298V39.8389ZM32.6636 41.2925C32.926 41.2375 33.2243 41.21 33.5586 41.21H34.5298V42.6178C34.4895 42.6978 34.4388 42.7786 34.3775 42.8604C34.2167 43.0804 33.9987 43.2666 33.7237 43.4189C33.4486 43.5713 33.1312 43.6475 32.7715 43.6475C32.4838 43.6475 32.2404 43.5967 32.0415 43.4951C31.8469 43.3893 31.7009 43.2476 31.6036 43.0698C31.5062 42.8921 31.4576 42.6953 31.4576 42.4795C31.4576 42.2679 31.5041 42.0838 31.5972 41.9272C31.6903 41.7664 31.8257 41.6331 32.0035 41.5273C32.1812 41.4216 32.4012 41.3433 32.6636 41.2925Z" fill="black"/>
<path fill-rule="evenodd" clip-rule="evenodd" d="M50.8766 37.6807H51.943V44.4028C51.943 45.008 51.8202 45.5243 51.5748 45.9517C51.3294 46.3791 50.9866 46.7028 50.5465 46.9229C50.1106 47.1471 49.607 47.2593 49.0357 47.2593C48.7988 47.2593 48.5195 47.2212 48.1979 47.145C47.8805 47.0731 47.5673 46.9482 47.2584 46.7705C46.9537 46.597 46.6977 46.3621 46.4903 46.0659L47.1061 45.3677C47.3938 45.7147 47.6943 45.9559 48.0074 46.0913C48.3248 46.2267 48.638 46.2944 48.9469 46.2944C49.3193 46.2944 49.6409 46.2246 49.9117 46.085C50.1826 45.9453 50.392 45.738 50.5401 45.4629C50.6925 45.1921 50.7687 44.8577 50.7687 44.46V43.8543C50.5528 44.1114 50.2925 44.3112 49.9879 44.4536C49.662 44.6017 49.2812 44.6758 48.8453 44.6758C48.4348 44.6758 48.0624 44.589 47.7281 44.4155C47.398 44.242 47.1145 43.9987 46.8775 43.6855C46.6406 43.3724 46.4586 43.0042 46.3316 42.5811C46.2089 42.1536 46.1476 41.6903 46.1476 41.1909V41.0576C46.1476 40.5329 46.2089 40.0568 46.3316 39.6294C46.4586 39.1978 46.6384 38.8275 46.8712 38.5186C47.1082 38.2096 47.3938 37.9727 47.7281 37.8076C48.0624 37.6383 48.4391 37.5537 48.858 37.5537C49.2896 37.5537 49.6663 37.6299 49.9879 37.7822C50.3137 37.9303 50.5888 38.1483 50.8131 38.436L50.8218 38.4469L50.8766 37.6807ZM47.3219 41.1909V41.0576C47.3219 40.7148 47.3557 40.3932 47.4234 40.0928C47.4954 39.7881 47.6033 39.5215 47.7472 39.293C47.8953 39.0602 48.0836 38.8783 48.3121 38.7471C48.5449 38.6117 48.822 38.5439 49.1437 38.5439C49.4399 38.5439 49.698 38.5947 49.9181 38.6963C50.1381 38.7979 50.3222 38.9354 50.4703 39.1089C50.5872 39.2388 50.6866 39.3836 50.7687 39.5433V42.6474C50.7462 42.6915 50.723 42.7349 50.6988 42.7778C50.5507 43.0487 50.3497 43.2666 50.0958 43.4316C49.8419 43.5967 49.5203 43.6792 49.131 43.6792C48.8136 43.6792 48.5406 43.6157 48.3121 43.4888C48.0836 43.3576 47.8953 43.1777 47.7472 42.9492C47.6033 42.7207 47.4954 42.4562 47.4234 42.1558C47.3557 41.8553 47.3219 41.5337 47.3219 41.1909Z" fill="black"/>
<path fill-rule="evenodd" clip-rule="evenodd" d="M66.6393 39.8389C66.6393 39.568 66.5843 39.3332 66.4743 39.1343C66.3685 38.9312 66.2077 38.7746 65.9919 38.6646C65.776 38.5545 65.5094 38.4995 65.192 38.4995C64.8958 38.4995 64.6356 38.5503 64.4113 38.6519C64.1912 38.7534 64.0177 38.8867 63.8908 39.0518C63.7681 39.2168 63.7067 39.3945 63.7067 39.585H62.5324C62.5324 39.3395 62.5959 39.0962 62.7228 38.855C62.8498 38.6138 63.0317 38.3958 63.2687 38.2012C63.5099 38.0023 63.7977 37.8457 64.132 37.7314C64.4705 37.613 64.8472 37.5537 65.2619 37.5537C65.7612 37.5537 66.2013 37.6383 66.5822 37.8076C66.9673 37.9769 67.2677 38.2329 67.4836 38.5757C67.7036 38.9142 67.8136 39.3395 67.8136 39.8516V43.0508C67.8136 43.2793 67.8327 43.5226 67.8708 43.7808C67.9131 44.0389 67.9744 44.2611 68.0548 44.4473V44.5488H66.8297C66.7705 44.4134 66.7239 44.2336 66.6901 44.0093C66.6807 43.9458 66.6726 43.8837 66.6658 43.8229C66.6099 43.8815 66.5503 43.9394 66.487 43.9966C66.2711 44.1912 66.013 44.3542 65.7126 44.4854C65.4163 44.6123 65.082 44.6758 64.7096 44.6758C64.2441 44.6758 63.8358 44.5848 63.4845 44.4028C63.1375 44.2209 62.8667 43.9775 62.672 43.6729C62.4816 43.3639 62.3864 43.019 62.3864 42.6382C62.3864 42.27 62.4583 41.9463 62.6022 41.667C62.7461 41.3835 62.9534 41.1486 63.2243 40.9624C63.4951 40.772 63.821 40.6281 64.2018 40.5308C64.5827 40.4334 65.008 40.3848 65.4777 40.3848H66.6393V39.8389ZM64.7731 41.2925C65.0355 41.2375 65.3338 41.21 65.6681 41.21H66.6393V42.6178C66.599 42.6978 66.5483 42.7786 66.487 42.8604C66.3262 43.0804 66.1082 43.2666 65.8332 43.4189C65.5581 43.5713 65.2407 43.6475 64.881 43.6475C64.5933 43.6475 64.3499 43.5967 64.151 43.4951C63.9564 43.3893 63.8104 43.2476 63.713 43.0698C63.6157 42.8921 63.5671 42.6953 63.5671 42.4795C63.5671 42.2679 63.6136 42.0838 63.7067 41.9272C63.7998 41.7664 63.9352 41.6331 64.1129 41.5273C64.2907 41.4216 64.5107 41.3433 64.7731 41.2925Z" fill="black"/>
<path fill-rule="evenodd" clip-rule="evenodd" d="M74.9555 37.6807H76.0219V44.4028C76.0219 45.008 75.8992 45.5243 75.6537 45.9517C75.4083 46.3791 75.0655 46.7028 74.6254 46.9229C74.1896 47.1471 73.686 47.2593 73.1147 47.2593C72.8777 47.2593 72.5984 47.2212 72.2768 47.145C71.9594 47.0731 71.6463 46.9482 71.3373 46.7705C71.0327 46.597 70.7766 46.3621 70.5693 46.0659L71.185 45.3677C71.4728 45.7147 71.7732 45.9559 72.0864 46.0913C72.4037 46.2267 72.7169 46.2944 73.0258 46.2944C73.3982 46.2944 73.7198 46.2246 73.9907 46.085C74.2615 45.9453 74.471 45.738 74.6191 45.4629C74.7714 45.1921 74.8476 44.8577 74.8476 44.46V43.8543C74.6317 44.1114 74.3715 44.3112 74.0668 44.4536C73.741 44.6017 73.3601 44.6758 72.9243 44.6758C72.5138 44.6758 72.1414 44.589 71.8071 44.4155C71.477 44.242 71.1935 43.9987 70.9565 43.6855C70.7195 43.3724 70.5375 43.0042 70.4106 42.5811C70.2879 42.1536 70.2265 41.6903 70.2265 41.1909V41.0576C70.2265 40.5329 70.2879 40.0568 70.4106 39.6294C70.5375 39.1978 70.7174 38.8275 70.9501 38.5186C71.1871 38.2096 71.4728 37.9727 71.8071 37.8076C72.1414 37.6383 72.518 37.5537 72.937 37.5537C73.3686 37.5537 73.7452 37.6299 74.0668 37.7822C74.3927 37.9303 74.6677 38.1483 74.892 38.436L74.9008 38.4469L74.9555 37.6807ZM71.4008 41.1909V41.0576C71.4008 40.7148 71.4347 40.3932 71.5024 40.0928C71.5743 39.7881 71.6822 39.5215 71.8261 39.293C71.9742 39.0602 72.1625 38.8783 72.3911 38.7471C72.6238 38.6117 72.901 38.5439 73.2226 38.5439C73.5188 38.5439 73.777 38.5947 73.997 38.6963C74.2171 38.7979 74.4011 38.9354 74.5493 39.1089C74.6661 39.2388 74.7656 39.3836 74.8476 39.5433V42.6474C74.8252 42.6915 74.8019 42.7349 74.7778 42.7778C74.6297 43.0487 74.4286 43.2666 74.1747 43.4316C73.9208 43.5967 73.5992 43.6792 73.2099 43.6792C72.8925 43.6792 72.6196 43.6157 72.3911 43.4888C72.1625 43.3576 71.9742 43.1777 71.8261 42.9492C71.6822 42.7207 71.5743 42.4562 71.5024 42.1558C71.4347 41.8553 71.4008 41.5337 71.4008 41.1909Z" fill="black"/>
<path fill-rule="evenodd" clip-rule="evenodd" d="M94.7879 34.7988H95.9685V44.5488H94.8894L94.8329 43.807C94.6097 44.087 94.3365 44.3026 94.0135 44.4536C93.6876 44.6017 93.3068 44.6758 92.8709 44.6758C92.4689 44.6758 92.1007 44.589 91.7664 44.4155C91.4363 44.242 91.1507 43.9987 90.9095 43.6855C90.6725 43.3724 90.4884 43.0042 90.3572 42.5811C90.2303 42.1536 90.1668 41.6903 90.1668 41.1909V41.0576C90.1668 40.5329 90.2303 40.0568 90.3572 39.6294C90.4884 39.1978 90.6725 38.8275 90.9095 38.5186C91.1507 38.2096 91.4363 37.9727 91.7664 37.8076C92.1007 37.6383 92.4731 37.5537 92.8836 37.5537C93.3152 37.5537 93.6918 37.6299 94.0135 37.7822C94.3151 37.9193 94.5733 38.1163 94.7879 38.3731V34.7988ZM91.3474 41.1909V41.0576C91.3474 40.7148 91.3813 40.3932 91.449 40.0928C91.5209 39.7881 91.631 39.5215 91.7791 39.293C91.9272 39.0602 92.1155 38.8783 92.344 38.7471C92.5768 38.6117 92.854 38.5439 93.1756 38.5439C93.4718 38.5439 93.7278 38.5947 93.9436 38.6963C94.1637 38.7979 94.3478 38.9354 94.4959 39.1089C94.6098 39.2354 94.7071 39.3762 94.7879 39.5311L94.7887 39.5326L94.7879 42.6721C94.7694 42.7077 94.7503 42.743 94.7307 42.7778C94.5784 43.0487 94.3753 43.2666 94.1214 43.4316C93.8717 43.5967 93.5522 43.6792 93.1629 43.6792C92.8455 43.6792 92.5725 43.6157 92.344 43.4888C92.1155 43.3576 91.9272 43.1777 91.7791 42.9492C91.631 42.7207 91.5209 42.4562 91.449 42.1558C91.3813 41.8553 91.3474 41.5337 91.3474 41.1909Z" fill="black"/>
<path fill-rule="evenodd" clip-rule="evenodd" d="M102.691 39.8389C102.691 39.568 102.636 39.3332 102.526 39.1343C102.421 38.9312 102.26 38.7746 102.044 38.6646C101.828 38.5545 101.562 38.4995 101.244 38.4995C100.948 38.4995 100.688 38.5503 100.463 38.6519C100.243 38.7534 100.07 38.8867 99.9429 39.0518C99.8202 39.2168 99.7589 39.3945 99.7589 39.585H98.5845C98.5845 39.3395 98.648 39.0962 98.775 38.855C98.9019 38.6138 99.0839 38.3958 99.3209 38.2012C99.5621 38.0023 99.8498 37.8457 100.184 37.7314C100.523 37.613 100.899 37.5537 101.314 37.5537C101.813 37.5537 102.253 37.6383 102.634 37.8076C103.019 37.9769 103.32 38.2329 103.536 38.5757C103.756 38.9142 103.866 39.3395 103.866 39.8516V43.0508C103.866 43.2793 103.885 43.5226 103.923 43.7808C103.965 44.0389 104.027 44.2611 104.107 44.4473V44.5488H102.882C102.823 44.4134 102.776 44.2336 102.742 44.0093C102.733 43.9458 102.725 43.8837 102.718 43.8229C102.662 43.8815 102.602 43.9394 102.539 43.9966C102.323 44.1912 102.065 44.3542 101.765 44.4854C101.468 44.6123 101.134 44.6758 100.762 44.6758C100.296 44.6758 99.8879 44.5848 99.5367 44.4028C99.1897 44.2209 98.9188 43.9775 98.7242 43.6729C98.5338 43.3639 98.4385 43.019 98.4385 42.6382C98.4385 42.27 98.5105 41.9463 98.6544 41.667C98.7982 41.3835 99.0056 41.1486 99.2764 40.9624C99.5473 40.772 99.8731 40.6281 100.254 40.5308C100.635 40.4334 101.06 40.3848 101.53 40.3848H102.691V39.8389ZM100.825 41.2925C101.088 41.2375 101.386 41.21 101.72 41.21H102.691V42.6178C102.651 42.6978 102.6 42.7786 102.539 42.8604C102.378 43.0804 102.16 43.2666 101.885 43.4189C101.61 43.5713 101.293 43.6475 100.933 43.6475C100.645 43.6475 100.402 43.5967 100.203 43.4951C100.009 43.3893 99.8625 43.2476 99.7652 43.0698C99.6679 42.8921 99.6192 42.6953 99.6192 42.4795C99.6192 42.2679 99.6657 42.0838 99.7589 41.9272C99.852 41.7664 99.9874 41.6331 100.165 41.5273C100.343 41.4216 100.563 41.3433 100.825 41.2925Z" fill="black"/>
<path d="M109.433 37.6807V38.582H108.151V42.8477C108.151 43.0804 108.187 43.256 108.259 43.3745C108.331 43.493 108.424 43.5713 108.538 43.6094C108.653 43.6475 108.775 43.6665 108.907 43.6665C109.004 43.6665 109.105 43.658 109.211 43.6411C109.321 43.62 109.404 43.603 109.459 43.5903L109.465 44.5488C109.372 44.5784 109.249 44.606 109.097 44.6313C108.949 44.661 108.769 44.6758 108.557 44.6758C108.27 44.6758 108.005 44.6187 107.764 44.5044C107.523 44.3901 107.33 44.1997 107.186 43.9331C107.047 43.6623 106.977 43.2983 106.977 42.8413V38.582H105.72V37.6807H106.977V36.0112H108.151V37.6807H109.433Z" fill="black"/>
<path fill-rule="evenodd" clip-rule="evenodd" d="M115.706 39.8389C115.706 39.568 115.651 39.3332 115.541 39.1343C115.435 38.9312 115.274 38.7746 115.058 38.6646C114.842 38.5545 114.576 38.4995 114.258 38.4995C113.962 38.4995 113.702 38.5503 113.478 38.6519C113.258 38.7534 113.084 38.8867 112.957 39.0518C112.834 39.2168 112.773 39.3945 112.773 39.585H111.599C111.599 39.3395 111.662 39.0962 111.789 38.855C111.916 38.6138 112.098 38.3958 112.335 38.2012C112.576 38.0023 112.864 37.8457 113.198 37.7314C113.537 37.613 113.914 37.5537 114.328 37.5537C114.828 37.5537 115.268 37.6383 115.649 37.8076C116.034 37.9769 116.334 38.2329 116.55 38.5757C116.77 38.9142 116.88 39.3395 116.88 39.8516V43.0508C116.88 43.2793 116.899 43.5226 116.937 43.7808C116.979 44.0389 117.041 44.2611 117.121 44.4473V44.5488H115.896C115.837 44.4134 115.79 44.2336 115.756 44.0093C115.747 43.9458 115.739 43.8837 115.732 43.8229C115.676 43.8815 115.617 43.9394 115.553 43.9966C115.338 44.1912 115.079 44.3542 114.779 44.4854C114.483 44.6123 114.148 44.6758 113.776 44.6758C113.311 44.6758 112.902 44.5848 112.551 44.4028C112.204 44.2209 111.933 43.9775 111.738 43.6729C111.548 43.3639 111.453 43.019 111.453 42.6382C111.453 42.27 111.525 41.9463 111.669 41.667C111.812 41.3835 112.02 41.1486 112.291 40.9624C112.561 40.772 112.887 40.6281 113.268 40.5308C113.649 40.4334 114.074 40.3848 114.544 40.3848H115.706V39.8389ZM113.839 41.2925C114.102 41.2375 114.4 41.21 114.734 41.21H115.706V42.6178C115.665 42.6978 115.615 42.7786 115.553 42.8604C115.393 43.0804 115.175 43.2666 114.9 43.4189C114.624 43.5713 114.307 43.6475 113.947 43.6475C113.66 43.6475 113.416 43.5967 113.217 43.4951C113.023 43.3893 112.877 43.2476 112.779 43.0698C112.682 42.8921 112.633 42.6953 112.633 42.4795C112.633 42.2679 112.68 42.0838 112.773 41.9272C112.866 41.7664 113.002 41.6331 113.179 41.5273C113.357 41.4216 113.577 41.3433 113.839 41.2925Z" fill="black"/>
<path d="M124.816 44.5488H123.642V37.6807H124.753L124.79 38.5351C124.803 38.5189 124.816 38.5028 124.829 38.4868C125.074 38.1906 125.366 37.9621 125.705 37.8013C126.048 37.6362 126.426 37.5537 126.841 37.5537C127.18 37.5537 127.484 37.6003 127.755 37.6934C128.026 37.7822 128.257 37.9261 128.447 38.125C128.642 38.3239 128.79 38.582 128.891 38.8994C128.993 39.2126 129.044 39.5955 129.044 40.0483V44.5488H127.863V40.0356C127.863 39.6759 127.81 39.3882 127.704 39.1724C127.598 38.9523 127.444 38.7936 127.241 38.6963C127.038 38.5947 126.788 38.5439 126.492 38.5439C126.2 38.5439 125.933 38.6053 125.692 38.728C125.455 38.8507 125.25 39.02 125.076 39.2358C124.977 39.3622 124.891 39.4993 124.816 39.6474V44.5488Z" fill="black"/>
<path d="M142.286 37.6807V38.582H141.004V42.8477C141.004 43.0804 141.04 43.256 141.112 43.3745C141.184 43.493 141.277 43.5713 141.391 43.6094C141.506 43.6475 141.628 43.6665 141.76 43.6665C141.857 43.6665 141.958 43.658 142.064 43.6411C142.174 43.62 142.257 43.603 142.312 43.5903L142.318 44.5488C142.225 44.5784 142.102 44.606 141.95 44.6313C141.802 44.661 141.622 44.6758 141.41 44.6758C141.123 44.6758 140.858 44.6187 140.617 44.5044C140.376 44.3901 140.183 44.1997 140.039 43.9331C139.9 43.6623 139.83 43.2983 139.83 42.8413V38.582H138.573V37.6807H139.83V36.0112H141.004V37.6807H142.286Z" fill="black"/>
<path d="M148.013 37.6807H148.133H148.787H148.959L150.586 42.9147L151.91 37.6807H153.078L151.085 44.5488H150.882H150.298H150.133L148.464 39.3488L146.838 44.5488H146.673H146.083H145.88L143.887 37.6807H145.061L146.411 42.8078L148.013 37.6807Z" fill="black"/>
<path d="M164.563 44.5488H163.388V37.6807H164.531L164.554 38.4689L164.563 38.4551C164.736 38.1716 164.956 37.9515 165.223 37.7949C165.494 37.6341 165.815 37.5537 166.188 37.5537C166.272 37.5537 166.37 37.5643 166.48 37.5854C166.59 37.6024 166.666 37.6214 166.708 37.6426L166.702 38.7344C166.604 38.7132 166.511 38.7005 166.422 38.6963C166.338 38.6878 166.24 38.6836 166.13 38.6836C165.86 38.6836 165.621 38.7259 165.413 38.8105C165.206 38.8952 165.03 39.0137 164.886 39.166C164.753 39.3072 164.645 39.4739 164.563 39.666V44.5488Z" fill="black"/>
<path d="M169.819 44.5488H168.639V34.7988H169.819V40.6919L170.448 39.9404L172.58 37.6807H174.015L171.339 40.5441L174.326 44.5488H172.942L170.559 41.3633L169.819 42.1314V44.5488Z" fill="black"/>
</svg>
