<svg height="40" viewBox="0 0 192 40" width="192" xmlns="http://www.w3.org/2000/svg"><path d="m60.4556937 28.0640641c-1.0035926.7379003-2.2265934 1.1188586-3.4731953 1.0818818-1.777376 0-3.138531-.5829829-3.9372253-1.8554554-.5005901-.7483484-.6946391-1.634034-.6946391-3.0466467v-7.6152152h-2.4523289v-2.3515515h2.443892v-3.9043043h3.0935342v3.9043043h4.4996862v2.3515515h-4.4996862v7.6432433c0 1.4658658.6946391 2.1581581 1.9686127 2.1581581.6666394.005617 1.3146242-.2192229 1.8336221-.6362362z"/><path d="m71.0805775 17.4974975c-.5082202-.2861303-1.0811925-.4385353-1.6648838-.4428428-1.8617452 0-3.5013183 1.606006-3.5013183 4.3723723v7.3937938h-3.0569743v-14.5437437h3.0710358v2.3515515c.9730571-1.5219219 2.415769-2.629029 4.1115882-2.629029.6815919-.0159679 1.3542782.1567291 1.943302.4988989z"/><path d="m85.4430132 29.0338338c-1.3611551 0-2.6126303-.6362362-2.9163591-2.1609609-1.1952291 1.7181181-3.1385311 2.273073-4.8624733 2.273073-3.0007282 0-5.0002762-1.634034-5.0002762-4.4844844 0-3.5987988 3.1947771-4.1537538 5.6949152-4.4284285 2.1120402-.2214214 3.6953673-.4148148 3.6953673-1.8274274s-1.6114501-1.8554554-2.9726052-1.8554554c-1.6323594.0187068-3.2207466.5297686-4.5559322 1.4658658l-1.2233521-2.2954955c1.7771366-1.1768832 3.8678583-1.7949506 6.0014563-1.7741742 3.4450722 0 5.8608412 1.3845846 5.8608412 4.8740741v6.6174174c0 .9417418.3065411 1.3285286 1.0293032 1.3285286.280943.0114152.5595047-.0555633.8043189-.1933934l.3346642 2.1049049c-.6002525.2416519-1.2425272.362624-1.8898682.3559559zm-3.3607031-7.9459459c-.8436911 1.051051-2.0839171 1.051051-3.6391211 1.3005005-1.5552041.2494494-2.6969994.6922923-2.6969994 2.2142142s1.1671061 2.160961 2.6688763 2.160961c1.9151789 0 3.655995-1.0258259 3.655995-3.4614615z"/><path d="m89.2705587 28.8124124v-14.5353353h3.0569743v2.1301301c1.1924168-1.577978 2.8123038-2.4636637 4.7809165-2.4636637 3.1947775 0 5.0283995 2.132933 5.0283995 5.401001v9.4678679h-3.0541622v-8.7755756c0-1.5527527-.5005901-3.2960961-2.8882361-3.2960961-2.1682862 0-3.8612931 1.521922-3.8612931 3.923924v8.1281281z"/><path d="m111.11091 29.1459459c-2.972605 0-5.391186-1.1379379-6.777652-3.268068l2.165474-1.5219219c1.11086 1.5499499 2.888236 2.2954955 4.780916 2.2954955 1.8055 0 3.028852-.6642643 3.028852-1.9367368 0-1.3285285-1.333032-1.606006-3.695368-1.9927928-3.062598-.5269269-5.503678-1.3845846-5.503678-4.3835836s2.694187-4.4032032 5.723038-4.4032032c2.944482 0 5.084645 1.2752753 6.279875 2.5477478l-1.946115 1.7713714c-1.122265-1.2064531-2.711775-1.8723842-4.361883-1.8274275-1.389278 0-2.72231.4988989-2.72231 1.6340341 0 1.2752752 1.555204 1.5499499 3.473195 1.8834834 3.110408.5605606 5.779285 1.3565566 5.779285 4.4284285 0 2.8616616-2.334213 4.7731731-6.223629 4.7731731z"/><path d="m120.054036 9.04424424h3.056975v15.97597596c0 1.1883884.50059 1.5219219 1.276786 1.5219219.436617.0074626.867745-.0977827 1.251475-.3055055l.582147 2.3263264c-.728211.3742385-1.540705.5556841-2.359523.5269269-1.361155 0-2.531074-.4148148-3.194777-1.3285285-.472467-.6922923-.613083-1.4966967-.613083-2.7691692z"/><path d="m140.673848 29.0338338c-1.361155 0-2.61263-.6362362-2.916359-2.1609609-1.195229 1.7181181-3.138531 2.273073-4.862473 2.273073-3.000728 0-5.000277-1.634034-5.000277-4.4844844 0-3.5987988 3.194778-4.1537538 5.694916-4.4284285 2.11204-.2214214 3.695367-.4148148 3.695367-1.8274274s-1.61145-1.8554554-2.972605-1.8554554c-1.63236.0187068-3.220747.5297686-4.555932 1.4658658l-1.223353-2.2954955c1.780795-1.1805684 3.876847-1.7997399 6.015518-1.776977 3.445073 0 5.860842 1.3845846 5.860842 4.8740741v6.6174174c0 .9417418.306541 1.3285286 1.029303 1.3285286.280943.0114152.559504-.0555633.804319-.1933934l.334664 2.1049049c-.604433.2444341-1.251676.3663946-1.90393.3587587zm-3.360703-7.9459459c-.843691 1.051051-2.083917 1.051051-3.639121 1.3005005-1.555204.2494494-2.694187.6922923-2.694187 2.2142142s1.164294 2.160961 2.666064 2.160961c1.915179 0 3.655995-1.0258259 3.655995-3.4614615z"/><path d="m153.368588 28.0640641c-1.003593.7379003-2.226594 1.1188586-3.473196 1.0818818-1.777376 0-3.138531-.5829829-3.937225-1.8554554-.50059-.7483484-.694639-1.634034-.694639-3.0466467v-7.6152152h-2.446704v-2.3515515h2.446704v-3.9043043h3.093534v3.9043043h4.499686v2.3515515h-4.527809v7.6432433c0 1.4658658.694639 2.1581581 1.968613 2.1581581.666639.005617 1.314624-.2192229 1.833622-.6362362z"/><path d="m168.841883 22.3071071h-11.111412c.137803 2.6570571 1.887056 4.1229229 4.471563 4.1229229 1.604319.0233456 3.141153-.6424078 4.218456-1.8274274l1.999548 1.9115115c-1.527081 1.606006-3.557565 2.6318318-6.333309 2.6318318-4.918719 0-7.641029-3.24004-7.641029-7.5311311s2.750433-7.6712713 7.334488-7.6712713c4.41813 0 7.112317 3.1307308 7.112317 7.3097098.002666.3519467-.014234.7037704-.050622 1.0538538zm-3.028851-2.217017c-.222172-2.4356356-1.915179-3.6828829-3.999096-3.6828829-2.306089 0-3.861293 1.5247247-4.030031 3.6828829z"/><path d="m182.231262 28.8124124v-2.1329329c-1.126213 1.5859544-2.969682 2.5103526-4.91872 2.4664664-4.136899 0-6.693283-3.2960961-6.693283-7.5871871 0-4.2910911 2.556384-7.6152153 6.693283-7.6152153 1.949645-.0495343 3.795241.8748787 4.91872 2.4636637v-7.36296296h3.093534v19.76816816zm-4.249391-12.1277277c-2.778556 0-4.111589 2.188989-4.111589 4.8740741 0 2.685085 1.333033 4.846046 4.111589 4.846046s4.249391-2.160961 4.249391-4.846046c0-2.6850851-1.473647-4.8740741-4.249391-4.8740741z"/><path d="m19.8066541 2.88928929c9.3377934 0 16.9075706 7.54420361 16.9075706 16.85045041 0 9.3062469-7.5697772 16.8504505-16.9075706 16.8504505s-16.90757061-7.5442036-16.90757061-16.8504505c.01084818-9.3017648 7.57427441-16.83963888 16.90757061-16.85045041zm0-2.76916917c-10.87234761 0-19.68612679 8.78400291-19.68612679 19.61961958 0 10.8356168 8.81377918 19.6196197 19.68612679 19.6196197 10.8723476 0 19.6861268-8.7840029 19.6861268-19.6196197 0-10.83561667-8.8137792-19.61961958-19.6861268-19.61961958z"/><path d="m24.5622599 27.9771772c-.9959902.7330364-2.2103216 1.1111095-3.4478845 1.0734735-1.7661268 0-3.118845-.5773774-3.9203515-1.8414415-.4949655-.7427427-.6890145-1.6228228-.6890145-3.027027v-7.5675676h-3.5406905v-2.3319319h3.5406905v-3.8790791h3.0625989v13.8206206c0 1.4574575.6890144 2.1441442 1.9686127 2.1441442.6611003.0037426 1.3034407-.2188823 1.8195605-.6306307z"/><path d="m23.1476711 15.4206206c-.0037441-.473518.1814148-.9291227.5147406-1.2665787s.787512-.5291185 1.2626354-.5328207h.0562461c.4751233.0037022.9293095.1953647 1.2626354.5328207.3333258.337456.5184846.7930607.5147406 1.2665787.0062364.9849624-.7890855 1.7888848-1.777376 1.7965966h-.0562461c-.9882906-.0077118-1.7836124-.8116342-1.777376-1.7965966z"/><ellipse cx="190.035405" cy="26.987788" rx="1.805499" ry="1.799399"/></svg>