<svg xmlns="http://www.w3.org/2000/svg" viewBox="0 0 172 50">
  <path
    d="M496.863,514.576a20.053,20.053,0,0,0-13.522,5.227,20.11,20.11,0,0,0-33.634,14.844v22.489a6.589,6.589,0,0,0,13.178,0V534.646a6.933,6.933,0,0,1,13.867,0v22.489a6.589,6.589,0,0,0,13.178,0V534.646a6.933,6.933,0,0,1,13.867,0v22.489a6.589,6.589,0,0,0,13.179,0V534.646a20.114,20.114,0,0,0-20.112-20.07M387.11,563.712a6.576,6.576,0,0,0,4.66-11.226L378.4,539.145,391.77,525.8a6.583,6.583,0,0,0-9.319-9.3l-18.03,17.993a6.568,6.568,0,0,0,0,9.3l18.03,17.991a6.571,6.571,0,0,0,4.659,1.926m59.747-42.346a6.583,6.583,0,0,1-6.589,6.576H428.825v29.194a6.589,6.589,0,0,1-13.179,0V527.942h-11.44a6.576,6.576,0,1,1,0-13.151h36.061a6.583,6.583,0,0,1,6.589,6.576"
    transform="translate(-344.906 -514.576)" fill="#9191a1"></path>
  <path
    d="M303.4,516.5a6.566,6.566,0,0,0,0,9.3l13.371,13.343L303.4,552.485a6.583,6.583,0,0,0,9.319,9.3l18.03-17.993,4.66-4.649L312.723,516.5a6.6,6.6,0,0,0-9.319,0"
    transform="translate(-301.474 -514.575)" fill="#0093cd"></path>
</svg>