<svg fill="none" height="128" viewBox="0 0 312 128" width="312" xmlns="http://www.w3.org/2000/svg"><path d="m79.4403 81.6374c.3269-.0728.6175 0 .7992.2181.1816.2181.2179.4726.0726.7998-.1816.2908-.3996.5817-.6902.9816-.3269.3272-.7265.6907-1.3078 1.0179-.5812.3272-1.1988.5817-1.998.7999-.7992.2181-1.7074.3272-2.7972.3272-1.4894 0-2.7245-.2909-3.778-.9089-1.0172-.6181-1.7074-1.3088-2.107-2.0723-.109-.1818-.218-.2908-.3996-.2181-.1816 0-.3269.1091-.4723.2181-.2179.2181-.4722.3999-.6902.6181-.3996.3272-.9082.6907-1.5984 1.0906s-1.5257.7271-2.5066 1.018c-.9808.2908-2.1069.4726-3.3784.4726-2.1796 0-3.996-.2908-5.4854-.9089-1.4894-.618-2.6882-1.4178-3.5964-2.3267-.9082-.9816-1.5258-2.0723-1.998-3.272-.2906-1.3815-.5086-2.5813-.5086-3.781 0-1.9268.5086-3.5992 1.5984-5.0897 1.0898-1.4179 2.5066-2.5086 4.214-3.272.9081-.3272 1.889-.6181 2.9061-.7998 1.0172-.1818 1.998-.3272 3.0152-.509.9808-.1818 1.998-.3999 2.9062-.6181.9808-.2908 1.889-.6907 2.7245-1.2724.9082-.618 1.5258-1.3815 1.8891-2.3267.3632-.9453.5085-1.9269.5085-3.0176 0-.7998-.1089-1.5269-.2906-2.2903-.2179-.7271-.5086-1.3816-.8718-1.8905-.3996-.509-.7992-.9816-1.3078-1.2725-.4723-.2908-1.0172-.4726-1.5984-.4726-1.0172 0-1.8164.2909-2.2886.7998-.5086.509-.8719 1.1998-1.1262 1.9269-.2906.7998-.5812 1.5269-.7992 2.3267-.2179.7998-.6175 1.527-1.1261 2.1086-.4723.4727-1.0172.7999-1.7074 1.018s-1.3804.3272-1.998.3272-1.2715-.1091-1.78-.3272c-.5086-.2181-.9082-.509-1.3078-.9089-.327-.3999-.6176-.7998-.7992-1.3088-.1817-.509-.2906-1.0179-.2906-1.5996 0-.7271.1816-1.527.5812-2.2904.3269-.7271 1.0172-1.4179 1.9253-2.0723.9082-.618 2.1797-1.0906 3.7781-1.4906 1.5984-.3999 3.5964-.5816 5.994-.5816 2.6882 0 5.0131.2908 6.9022.7998 1.889.5817 3.4874 1.3815 4.6862 2.3994 1.1988 1.018 2.0706 2.3268 2.6155 3.8901.5813 1.5269.7992 3.3083.7992 5.3079 0 2.3994-.0726 4.6171-.2179 6.6893-.109 1.8178-.218 3.6719-.2906 5.5261-.0727 1.5996-.0727 2.9084.1089 3.9264.1817 1.0179.4723 1.6723 1.0172 1.9268.218.1091.5812.1818.9082.1818.3633.2908.7629.2181 1.1625.1818zm-12.6056-16.3963c0-.1818-.0727-.2182-.1816-.2909-.109-.0727-.218 0-.327.1091-.1816.2181-.3996.4726-.5086.618-.1816.1818-.3996.4726-.6175.6908-.4723.509-.9082.9816-1.4168 1.3815-.5086.4726-.9808.8725-1.4894 1.3088-.4723.3999-.9809.7998-1.4168 1.1997-.4722.3999-.9082.7998-1.3078 1.2724-.6175.7271-1.0898 1.527-1.4167 2.3995-.2906.8725-.4723 1.7814-.4723 2.7994 0 .6907.109 1.3088.2906 1.9995.1817.6181.5086 1.2725.9082 1.7814.3996.509.9082.9816 1.5258 1.2725.6175.3272 1.3804.5089 2.2159.5089.8719 0 1.5984-.1817 2.107-.5816.5812-.3272.9808-.7999 1.2715-1.3088.2906-.509.5086-1.018.6175-1.527.109-.5089.1817-.9088.1817-1.2724v-12.3608zm32.4766-12.1791c-.9809 0-1.889.3272-2.6882 1.0179-.7992.6908-1.5258 1.5997-2.107 2.8721-.5813 1.1998-1.0172 2.6903-1.3805 4.399-.3269 1.7087-.4722 3.5992-.4722 5.7078s.2906 3.9991.7992 5.6351c.5086 1.6724 1.2715 3.0175 2.1796 4.2172.9082 1.1998 1.998 2.0723 3.2695 2.6176 1.2713.5454 2.5793.9089 3.9963.9089 1.38 0 2.688-.2181 3.814-.618s2.18-.8726 3.088-1.3815c.908-.509 1.598-1.018 2.18-1.4906.581-.4726.98-.7271 1.198-.8725.327-.1818.618-.1091.8.109.217.2182.217.509 0 .9089-.182.2909-.4.6908-.727 1.1997-.327.509-.799 1.1271-1.38 1.7815-.582.6544-1.272 1.3088-2.071 1.9995-.799.6908-1.708 1.3088-2.797 1.8905-1.09.5817-2.216 1.0179-3.597 1.3815-1.271.3272-2.724.509-4.3953.509-2.5066 0-4.7952-.3272-6.8296-1.0907-2.0706-.7271-3.778-1.8178-5.1948-3.272-1.4167-1.4178-2.5065-3.1265-3.3057-5.2715-.7266-2.0723-1.1262-4.399-1.1262-7.0893 0-2.3268.2906-4.399.8719-6.2168.5812-1.8178 1.3804-3.381 2.3249-4.7262.9808-1.3815 2.0707-2.4722 3.3058-3.4174s2.5066-1.6724 3.8144-2.2904c1.3077-.5817 2.5792-.9816 3.8143-1.2724 1.2351-.2909 2.3976-.3999 3.4143-.3999 1.672 0 3.197.1817 4.578.4726 1.38.2908 2.579.7271 3.596 1.2724.981.5817 1.78 1.1997 2.325 1.9269.581.7271.872 1.5269.872 2.3994 0 .7271-.109 1.3815-.4 1.8905-.218.509-.581.9089-.981 1.2724-.399.3636-.871.5817-1.38.7271-.509.1818-1.017.2182-1.526.2182-.69 0-1.416-.1091-2.07-.3999-.618-.2909-1.199-.7271-1.599-1.3815-.327-.4727-.581-1.0907-.726-1.7815-.182-.7271-.4-1.4178-.691-2.1086-.217-.6907-.581-1.2724-1.017-1.7814-.363-.2181-.981-.4726-1.7797-.4726zm34.5107-1.9996c2.507 0 4.795.4727 6.902 1.3088 2.107.9089 3.924 2.1087 5.413 3.6719 1.49 1.5633 2.688 3.3811 3.524 5.4897.872 2.1086 1.271 4.3263 1.271 6.7258 0 2.3994-.472 4.6898-1.38 6.8348-.908 2.1086-2.18 3.9991-3.778 5.5987-1.599 1.5996-3.488 2.8721-5.631 3.8173-2.179.9089-4.504 1.3815-7.011 1.3815s-4.795-.4726-6.902-1.3088c-2.107-.9088-3.924-2.1086-5.413-3.6719-1.489-1.5269-2.688-3.381-3.524-5.4896-.872-2.1086-1.271-4.3263-1.271-6.7985 0-2.3995.472-4.6898 1.38-6.7984.908-2.1087 2.18-3.9991 3.778-5.5988 1.599-1.5996 3.488-2.8721 5.631-3.8173 2.143-.8725 4.505-1.3452 7.011-1.3452zm-.327 32.9017c1.126 0 2.18-.3999 3.015-1.1997.872-.7998 1.599-1.9269 2.18-3.3084.581-1.4178 1.017-3.0175 1.308-4.908.29-1.8904.472-3.89.472-5.9986s-.182-4.1082-.472-5.9986c-.291-1.8905-.727-3.5265-1.308-4.908-.581-1.4179-1.308-2.5085-2.18-3.3084-.871-.7998-1.889-1.1997-3.015-1.1997s-2.179.3999-3.015 1.1997c-.835.7999-1.598 1.9269-2.18 3.3084-.581 1.4178-1.017 3.0175-1.307 4.908-.291 1.8904-.4 3.89-.4 5.9986s.109 4.1082.4 5.9986c.29 1.8905.69 3.5265 1.307 4.908.582 1.4179 1.308 2.5086 2.18 3.3084.763.7998 1.816 1.1997 3.015 1.1997zm33.93-4.908c0 1.018.218 1.8178.618 2.3995.399.618.908 1.0906 1.489 1.4178s1.09.6181 1.598.7271c.509.1818.872.2182 1.09.2182.182.0727.327.109.4.2181.072.1091.109.2181.109.3272s-.109.2181-.218.3272-.291.1818-.472.1818h-19.109c-.181 0-.327-.0727-.472-.1818-.109-.0727-.182-.2181-.218-.3272 0-.1091 0-.2181.109-.3272.073-.1091.218-.1818.4-.2181.181 0 .581-.1091 1.09-.2182.508-.1817 1.089-.3999 1.598-.7271s1.017-.8725 1.489-1.4178c.473-.5817.618-1.4179.618-2.3995v-41.118c0-.3272-.182-.5089-.472-.5816-.073 0-.218-.0728-.509-.1091-.291-.0727-.617-.1818-1.017-.2181-.327-.1091-.727-.1818-1.09-.2182-.218-.0727-.399-.109-.617-.1818-.327-.0727-.473-.2181-.509-.5089 0-.2182.182-.4726.509-.509 1.017-.2181 2.07-.5817 3.087-.9089 1.127-.3999 2.216-.7998 3.379-1.2724 1.09-.4726 2.179-.9816 3.269-1.527 1.017-.5816 1.998-1.0906 2.797-1.6723.218-.1818.473-.2181.691-.1818.218 0 .327.2182.327.5817zm39.015 2.5813c.327-.0728.618 0 .8.2181.181.2181.218.4726.072.7998-.181.2908-.399.5817-.69.9816-.327.3272-.726.6907-1.308 1.0179-.581.3272-1.199.5817-1.998.7999-.799.2181-1.707.3272-2.797.3272-1.489 0-2.724-.2909-3.778-.9089-1.017-.6181-1.707-1.3088-2.107-2.0723-.109-.1818-.218-.2908-.4-.2181-.181 0-.326.1091-.472.2181-.218.2181-.472.3999-.69.6181-.4.3272-.908.6907-1.598 1.0906-.691.3999-1.526.7271-2.507 1.018-.981.2908-2.107.4726-3.378.4726-2.18 0-3.996-.2908-5.486-.9089-1.489-.618-2.688-1.4178-3.596-2.3267-.908-.9816-1.526-2.0723-1.998-3.272-.4-1.1997-.618-2.3995-.618-3.5992 0-1.9268.509-3.5992 1.599-5.0898 1.089-1.4178 2.506-2.5085 4.214-3.272.908-.3272 1.889-.618 2.906-.7998 1.017-.1817 1.998-.3272 3.015-.5089.981-.1818 1.998-.4 2.906-.6181.981-.2908 1.889-.6907 2.725-1.2724.908-.6181 1.525-1.3815 1.889-2.3268.327-.9816.508-1.9268.508-3.0175 0-.7998-.109-1.5269-.29-2.2904-.218-.7271-.509-1.3815-.872-1.8905-.4-.5089-.799-.9815-1.308-1.2724-.472-.2908-1.017-.4726-1.598-.4726-1.018 0-1.817.2908-2.289.7998-.509.509-.872 1.1997-1.126 1.9269-.291.7998-.581 1.5269-.799 2.3267s-.618 1.5269-1.127 2.1086c-.472.4726-1.017.7998-1.707 1.018-.69.2181-1.38.3272-1.998.3272-.69 0-1.271-.1091-1.78-.3272-.509-.2182-.908-.509-1.308-.9089-.327-.3999-.617-.7998-.799-1.3088s-.291-1.018-.291-1.5997c0-.7271.182-1.5269.582-2.2903.327-.7272 1.017-1.4179 1.925-2.0723.908-.618 2.18-1.0907 3.778-1.4906s3.596-.5817 5.994-.5817c2.688 0 5.013.2909 6.902.7999 1.889.5816 3.488 1.3815 4.686 2.3994 1.199 1.018 2.071 2.3268 2.616 3.89.545 1.5633.799 3.3084.799 5.3079 0 2.3995-.072 4.6172-.218 6.6894-.109 1.8178-.218 3.6719-.29 5.526-.073 1.5997-.073 2.9085.109 3.9264.181 1.018.472 1.6724 1.017 1.9269.218.109.581.1818.908.1818.472.109.872.0363 1.271 0zm-12.641-16.3963c0-.1818-.073-.2182-.182-.2909s-.218 0-.327.1091c-.182.2181-.327.4726-.509.618-.181.1818-.327.4726-.617.6908-.472.509-.908.9816-1.417 1.3815-.509.4726-.981.8725-1.489 1.3088-.473.3999-.981.7998-1.417 1.1997-.472.3999-.908.7998-1.308 1.2724-.617.7271-1.09 1.527-1.417 2.3995-.29.8725-.472 1.7814-.472 2.7994 0 .6907.109 1.3088.291 1.9995.181.6181.508 1.2725.908 1.7814.399.509.908.9816 1.526 1.2725.617.3272 1.38.5089 2.216.5089.835 0 1.598-.1817 2.107-.5816.581-.3272.98-.7999 1.271-1.3088.291-.509.509-1.018.618-1.527.109-.5089.181-.9088.181-1.2724.037-.0364.037-12.3608.037-12.3608zm55.798 18.6866c.182.0727.327.1091.4.2182.072.109.109.2181.109.3272 0 .109-.109.2181-.218.3272-.109.109-.291.1817-.472.1817h-13.187c-.291 0-.472-.0727-.618-.1817-.181-.1091-.218-.3272-.218-.5817v-3.272c0-.1818-.072-.2909-.181-.3272-.109-.0727-.218 0-.327.1091-.327.4726-.727.8725-1.09 1.2724-.509.5817-1.199 1.127-2.107 1.7087s-1.998 1.0907-3.306 1.4906c-1.308.4726-2.87.618-4.577.618-1.925 0-3.669-.2181-5.122-.7271-1.49-.509-2.725-1.1997-3.778-2.1086-1.017-.9089-1.926-1.8905-2.616-3.0175s-1.271-2.2904-1.671-3.5265c-.4-1.1997-.69-2.4721-.872-3.7809-.181-1.1271-.218-2.3268-.218-3.5265 0-2.7267.327-5.2715 1.017-7.4892.691-2.2177 1.671-4.1809 3.016-5.7805 1.38-1.5997 3.015-2.7994 5.085-3.6719 2.071-.8726 4.396-1.2725 7.193-1.2725 1.526 0 2.87.1091 3.996.2909 1.126.1817 2.071.3999 2.797.618.727.2181 1.272.4726 1.671.6908.218.109.4.2181.618.3272.109.109.218.109.327.0727.109-.0727.182-.1818.182-.2909v-14.7239c0-.3272-.182-.509-.473-.5817-.072 0-.218-.0727-.508-.1091-.291-.0727-.618-.1817-1.017-.2181-.327-.1091-.727-.1818-1.09-.2181-.218-.0727-.4-.1091-.618-.1818-.327-.0727-.472-.2181-.508-.509-.073-.2908.181-.4726.508-.509 1.017-.2181 2.071-.5816 3.088-.9088 1.126-.4 2.216-.7999 3.378-1.2725 1.09-.4726 2.18-.9816 3.27-1.5269 1.017-.5817 1.998-1.0907 2.797-1.6724.218-.1817.472-.2181.69-.1817.218 0 .327.2181.327.5817v48.7162c0 .9816.182 1.7814.582 2.3268.399.618.871 1.0906 1.307 1.3815.509.3272.981.5816 1.49.6907.363.0727.726.2181.944.2181zm-14.276-20.7589c0-.618-.073-1.2724-.109-1.9996-.109-.7271-.218-1.4905-.473-2.2176-.218-.7271-.508-1.4906-.871-2.1813-.327-.6908-.8-1.3088-1.308-1.8178-.581-.5817-1.199-.9816-1.889-1.3088-.727-.3272-1.599-.509-2.507-.509-1.417 0-2.688.3272-3.705 1.0907-1.017.7271-1.817 1.7814-2.47 3.0175-.618 1.2724-1.09 2.7993-1.381 4.5808-.291 1.7814-.472 3.6718-.472 5.635v2.1814c0 .9088.072 1.8904.218 2.9811.109 1.0907.327 2.1813.617 3.1993.291 1.0906.727 2.0722 1.272 2.9084.581.8725 1.308 1.5997 2.179 2.1086.872.5817 1.926.7999 3.27.7999 1.671 0 2.979-.2909 3.996-.9089.981-.6181 1.78-1.3815 2.289-2.2177.508-.8362.908-1.8178 1.089-2.7994.182-.9816.218-1.8905.218-2.6176zm29.679 17.2688c0 .7271-.182 1.4906-.472 2.1086-.291.6181-.69 1.2725-1.199 1.7814-.509.509-1.09.9089-1.78 1.1998-.69.2908-1.417.3999-2.18.3999-.799 0-1.489-.1091-2.179-.3999-.618-.2909-1.199-.6181-1.708-1.127-.472-.4727-.872-1.0907-1.126-1.7087-.29-.6181-.399-1.3815-.399-2.1087 0-.7271.181-1.4178.472-2.1086.29-.618.69-1.2724 1.199-1.7814.508-.509 1.089-.9089 1.78-1.1997.69-.2909 1.416-.4726 2.179-.4726.799 0 1.49.109 2.18.3999.617.2908 1.199.618 1.707 1.127.473.509.872 1.0906 1.126 1.7087.291.7635.4 1.4906.4 2.1813z" fill="#000"/></svg>