<svg fill="none" height="128" viewBox="0 0 312 128" width="312" xmlns="http://www.w3.org/2000/svg" xmlns:xlink="http://www.w3.org/1999/xlink"><clipPath id="a"><path d="m0 0h312v128h-312z"/></clipPath><clipPath id="b"><path d="m0 6h312v136h-312z"/></clipPath><g clip-path="url(#a)"><g clip-path="url(#b)"><path clip-rule="evenodd" d="m240.033 90.7699v2.4878c-1.009-1.7009-2.749-2.7671-4.969-2.7671-3.782 0-6.557 2.9955-6.557 6.778 0 3.8334 2.749 6.7784 6.557 6.7784 2.22 0 3.96-1.067 4.969-2.793v1.32c0 2.818-1.842 4.57-4.817 4.57-2.27 0-3.884-.99-4.54-2.945l-1.841.711c.858 2.513 2.951 4.061 6.356 4.061 4.287 0 6.834-2.589 6.834-6.574v-11.6271zm-67.396.1946v7.8127c0 1.2728-.845 2.1628-2.164 2.1628-1.343 0-2.139-.916-2.139-2.1628v-7.8127h-4.153v8.3725c0 3.028 1.691 5.37 5.049 5.37 1.442 0 2.736-.56 3.656-1.451v1.12h3.88v-13.4115zm98.627.1515v2.5767c-1.009-1.7178-2.749-2.7282-4.994-2.7282-3.757 0-6.532 2.8545-6.532 6.7953 0 3.9912 2.75 6.9472 6.532 6.9472 2.245 0 3.985-1.061 4.994-2.83v2.552h1.992v-13.313zm-16.444-.1515v8.4547c-.025 1.7118-1.521 3.3458-3.742 3.3458-2.246.026-3.668-1.481-3.668-3.7545v-8.046h-2.122v8.3015c0 3.193 1.872 5.441 5.241 5.441 1.946 0 3.519-.945 4.392-2.197v1.916h2.021v-13.4615zm-62.641 13.2685h2.3v-3.709h-1.405c-1.202 0-1.892-.6903-1.892-1.9947v-4.1433h3.221v-3.6317h-3.067v-3.5808h-4.141v2.0717c0 .9975-.485 1.5091-1.431 1.5091h-1.073v3.6317h2.249v4.6548c0 3.1202 1.763 5.1922 5.239 5.1922zm28.759-13.7424c-2.057 0-3.624.9707-4.456 2.2478v-1.9668h-1.959v13.4614h2.081v-8.3273c.025-1.8135 1.592-3.4738 3.795-3.4738 2.301-.0256 3.697 1.4559 3.697 3.9592v7.8419h2.081v-8.2251c0-3.3461-1.934-5.5173-5.239-5.5173zm-25.06 13.7424h4.195v-13.2685h-4.195zm-16.781 0h4.195v-18.4811h-4.195zm97.422 0h2.331v-18.4811h-2.331zm-73.649 0h2.331v-18.4811h-2.331zm5.594 0h2.33v-13.2685h-2.33zm-51.586-13.7424c-2.014 0-3.406.7139-4.177 1.7592-.721-1.1473-1.939-1.7592-3.828-1.7592-1.566 0-2.809.5864-3.63 1.4278v-1.0963h-3.903v13.4109h4.152v-7.8529c0-.9943.621-2.1161 2.063-2.1161 1.343 0 1.964 1.1473 1.964 2.4221v7.5469h4.152v-7.8529c0-.9688.621-2.1161 2.063-2.1161 1.343 0 1.964 1.1473 1.964 2.4221v7.5469h4.152v-8.3628c0-2.932-1.666-5.3796-4.972-5.3796zm109.386 12.3204c-2.671 0-4.661-2.12-4.661-4.9879 0-2.8183 1.99-4.9631 4.661-4.9631 2.772 0 4.662 2.0451 4.662 4.9631 0 2.9429-1.915 4.9879-4.662 4.9879zm-31.243-.474c-2.667 0-4.649-2.132-4.649-4.9753 0-2.8178 2.007-4.9756 4.7-4.9756 2.719 0 4.623 2.0816 4.623 4.9756 0 2.8943-1.929 4.9753-4.674 4.9753zm-106.402-21.2538c-2.361 1.3804-5.101 2.1707-8.022 2.1707-8.876 0-16.082-7.2966-16.082-16.2842 0-8.9874 7.206-16.2839 16.082-16.2839 2.652 0 5.155.6514 7.361 1.8049v-.923c0-.0514.02-.1008.056-.1371.036-.0364.085-.0568.136-.0568h8.337c.106 0 .192.0869.192.1939v32.1162c0 .4581-.019.9118-.056 1.3603-.683 8.352-7.603 14.9238-16.026 14.9238-11.748 0-15.064-10.384-15.443-11.7256-.022-.0844.014-.173.089-.2168.864-.5074 5.873-3.4458 7.119-4.1769.058-.0341.13-.0349.189-.0019.059.0329.096.0946.098.1626.169 4.2948 3.666 7.7292 7.948 7.7292 4.39 0 7.955-3.6093 7.955-8.0547h.009c.024-.9093.044-1.7903.058-2.6007zm69.356 7.9858c1.441 0 2.564-1.0678 2.564-2.5934 0-1.5257-1.123-2.6191-2.564-2.6191-1.44 0-2.563 1.0934-2.563 2.6191 0 1.5256 1.123 2.5934 2.563 2.5934zm11.654-.4739c.925 0 1.631-.6784 1.631-1.6332 0-.9801-.706-1.6838-1.631-1.6838s-1.632.7037-1.632 1.6838c0 .9548.707 1.6332 1.632 1.6332zm-139.591-34.5717v-2.6687c0-.1077.086-.1951.192-.1951h8.4559c.1059 0 .192.0874.192.1951v31.0811c0 .1078-.0861.1952-.192.1952h-8.4559c-.106 0-.192-.0874-.192-.1952v-1.4433c-2.5875 1.8062-5.7211 2.864-9.096 2.864-8.8815 0-16.092-7.3256-16.092-16.3486 0-9.0229 7.2105-16.3483 16.092-16.3483 3.3749 0 6.5085 1.0578 9.096 2.8638zm119.524 29.3592c8.149 0 13.308-3.9094 13.308-10.3659 0-11.4912-16.122-8.6481-16.122-13.0906 0-1.3032.996-2.0732 2.99-2.0732 1.988 0 3.426.9454 4.153 2.7825.039.0985.149.1468.246.1083 1.08-.4265 6.716-2.6547 7.749-3.0633.093-.0366.142-.1391.113-.2353-1.301-4.2785-5.837-6.7593-12.086-6.7593-7.797 0-12.722 3.6725-12.722 9.7142 0 10.7212 16.123 8.3518 16.123 13.2683 0 1.4215-1.173 2.31-3.401 2.31-3.088 0-5.116-1.4091-5.976-3.8976-.016-.0494-.052-.0896-.099-.1118-.047-.022-.101-.0239-.149-.0052-1.094.4242-6.678 2.5909-7.733 3.0002-.096.0374-.145.1454-.111.2437 1.866 5.3353 6.816 8.175 13.717 8.175zm-32.606-32.6968c8.875 0 16.081 7.3254 16.081 16.3483 0 9.0231-7.206 16.3485-16.081 16.3485-8.876 0-16.082-7.3254-16.082-16.3485 0-9.0229 7.206-16.3483 16.082-16.3483zm-62.3742 3.4597s0-1.8744 0-2.4912c0-.1071-.085-.1941-.1902-.1941-1.1908 0-7.607 0-8.7976 0-.1052 0-.1902.087-.1902.1941v31.0603c0 .0516.0199.1009.0557.1374.0356.0363.0839.0567.1345.0567h9.3822c.1052 0 .1902-.0868.1902-.1941 0-1.871 0-16.6342 0-16.6342 0-5.4497 6.5726-6.0213 7.7656-6.0802.103-.0031.185-.0889.185-.1938 0-1.1922 0-7.7103 0-8.9264 0-.0521-.02-.1018-.057-.1383-.036-.0365-.085-.0567-.135-.0559-3.368.0501-6.2779 1.4101-8.3432 3.4597zm-33.4164 2.2267.0019.0005c4.8868.0012 8.854 4.0284 8.854 8.9886 0 4.4669-3.2173 8.1773-7.4264 8.8716-.8244.1372-1.4295.8603-1.4295 1.7081v4.1245-1.3953c-4.8877 0-8.7801-4.0283-8.856-8.9885-.0947-6.1942 5.0402-8.1624 7.5328-8.7519.7744-.1808 1.3232-.8805 1.3232-1.687zm58.7326 2.3693c4.373 0 7.924 3.6096 7.924 8.0557 0 4.446-3.551 8.0558-7.924 8.0558-4.374 0-7.925-3.6098-7.925-8.0558 0-4.4461 3.551-8.0557 7.925-8.0557zm36.825 0c4.373 0 7.924 3.6096 7.924 8.0556 0 4.4463-3.551 8.0559-7.924 8.0559-4.374 0-7.925-3.6096-7.925-8.0559 0-4.446 3.551-8.0556 7.925-8.0556zm-95.4695-2.393h.0194v.23l-.0103.0005c-.0114.0015-.0187.0064-.0187.0064.0037-.0673.0068-.146.0096-.2369z" fill="#000" fill-rule="evenodd"/></g></g></svg>