<svg fill="none" height="128" viewBox="0 0 312 128" width="312" xmlns="http://www.w3.org/2000/svg" xmlns:xlink="http://www.w3.org/1999/xlink"><clipPath id="a"><path d="m59 13h193v102h-193z"/></clipPath><g clip-path="url(#a)" fill="#000"><path d="m122.049 80.7626h-8.462v33.5824h8.462z"/><path d="m190.285 90.3855c-.34-.1771-3.061-1.793-7.109-1.793-5.481 0-9.274 3.8142-9.274 8.9572 0 4.9903 3.634 8.9653 9.274 8.9653 3.978 0 6.745-1.581 7.109-1.782v9.013c-1.051.298-3.938 1.195-7.717 1.195-9.513 0-17.858-6.571-17.858-17.3913 0-10.0282 7.559-17.383 17.858-17.383 3.983 0 6.921.9691 7.717 1.2053z"/><path d="m101.952 90.3855c-.34-.1771-3.0611-1.793-7.1087-1.793-5.4817 0-9.2747 3.8142-9.2747 8.9572 0 4.9903 3.6348 8.9653 9.2747 8.9653 3.9779 0 6.7447-1.581 7.1087-1.782v9.013c-1.051.298-3.9376 1.195-7.7172 1.195-9.5133 0-17.8578-6.571-17.8578-17.3913 0-10.0282 7.5591-17.383 17.8578-17.383 3.9833 0 6.9212.9691 7.7172 1.2053z"/><path d="m216.907 88.7184c-5.02 0-8.749 3.9565-8.749 8.831 0 4.8856 3.729 8.8396 8.749 8.8396 5.016 0 8.755-3.954 8.755-8.8396 0-4.8745-3.739-8.831-8.755-8.831zm17.721 8.831c0 9.6066-7.406 17.3906-17.721 17.3906s-17.71-7.784-17.71-17.3906c0-9.5907 7.395-17.3829 17.71-17.3829s17.721 7.7922 17.721 17.3829z"/><path d="m154.142 88.396c-.126-.0403-3.688-1.0254-6.616-1.0254-3.39 0-5.235 1.1381-5.235 2.7513 0 2.0454 2.488 2.7594 3.879 3.1996l2.335.7435c5.492 1.7501 7.996 5.5161 7.996 9.607 0 8.436-7.409 11.271-13.885 11.271-4.501 0-8.718-.83-9.133-.918v-7.728c.745.188 4.294 1.248 7.991 1.248 4.211 0 6.146-1.232 6.146-3.135 0-1.702-1.675-2.684-3.774-3.345-.512-.171-1.281-.413-1.807-.585-4.712-1.4921-8.642-4.2649-8.642-9.8239 0-6.2811 4.697-10.498 12.497-10.498 4.12 0 7.996 1.0013 8.248 1.0684z"/><path d="m67.4035 44.6726c0-2.3138-1.8871-4.19-4.2004-4.19s-4.2031 1.8762-4.2031 4.19v8.815c0 2.3272 1.8898 4.2061 4.2031 4.2061s4.2004-1.8789 4.2004-4.2061z"/><path d="m90.4813 33.1023c0-2.3137-1.8871-4.1954-4.2004-4.1954-2.316 0-4.2031 1.8817-4.2031 4.1954v20.3866c0 2.3272 1.8871 4.2035 4.2031 4.2035 2.3133 0 4.2004-1.8763 4.2004-4.2035z"/><path d="m113.559 17.2722c0-2.3138-1.887-4.1927-4.2-4.1927-2.316 0-4.203 1.8789-4.203 4.1927v44.5928c0 2.3272 1.887 4.2062 4.203 4.2062 2.313 0 4.2-1.879 4.2-4.2062z"/><path d="m136.637 33.1023c0-2.3137-1.887-4.1954-4.2-4.1954-2.316 0-4.203 1.8817-4.203 4.1954v20.3866c0 2.3272 1.887 4.2035 4.203 4.2035 2.313 0 4.2-1.8763 4.2-4.2035z"/><path d="m159.689 44.6726c0-2.3138-1.874-4.19-4.176-4.19-2.314 0-4.201 1.8762-4.201 4.19v8.815c0 2.3272 1.887 4.2061 4.201 4.2061 2.302 0 4.176-1.8789 4.176-4.2061z"/><path d="m159.7 44.6726c0-2.3138-1.887-4.19-4.201-4.19-2.313 0-4.203 1.8762-4.203 4.19v8.815c0 2.3272 1.89 4.2061 4.203 4.2061 2.314 0 4.201-1.8789 4.201-4.2061z"/><path d="m182.777 33.1023c0-2.3137-1.887-4.1954-4.2-4.1954-2.316 0-4.203 1.8817-4.203 4.1954v20.3866c0 2.3272 1.887 4.2035 4.203 4.2035 2.313 0 4.2-1.8763 4.2-4.2035z"/><path d="m205.855 17.2722c0-2.3138-1.887-4.1927-4.2-4.1927-2.316 0-4.203 1.8789-4.203 4.1927v44.5928c0 2.3272 1.887 4.2062 4.203 4.2062 2.313 0 4.2-1.879 4.2-4.2062z"/><path d="m228.933 33.1023c0-2.3137-1.887-4.1954-4.2-4.1954-2.316 0-4.203 1.8817-4.203 4.1954v20.3866c0 2.3272 1.887 4.2035 4.203 4.2035 2.313 0 4.2-1.8763 4.2-4.2035z"/><path d="m251.985 44.6726c0-2.3138-1.874-4.19-4.176-4.19-2.313 0-4.201 1.8762-4.201 4.19v8.815c0 2.3272 1.888 4.2061 4.201 4.2061 2.302 0 4.176-1.8789 4.176-4.2061z"/><path d="m247.158 109.922v.526h-1.496v3.895h-.614v-3.895h-1.504v-.526z"/><path d="m247.472 109.922h.962l1.322 3.626h.021l1.279-3.626h.943v4.421h-.63v-3.624h-.021l-1.341 3.624h-.581l-1.308-3.624h-.03v3.624h-.616z"/></g></svg>