<svg fill="none" height="128" viewBox="0 0 312 128" width="312" xmlns="http://www.w3.org/2000/svg" xmlns:xlink="http://www.w3.org/1999/xlink"><linearGradient id="a" gradientUnits="userSpaceOnUse" x1="47.6799" x2="68.7836" y1="58.7638" y2="95.3115"><stop offset="0"/><stop offset="1" stop-opacity=".6"/></linearGradient><linearGradient id="b" gradientUnits="userSpaceOnUse" x1="54.3504" x2="86.8109" y1="42.7083" y2="81.3963"><stop offset="0" stop-opacity=".2"/><stop offset=".94"/></linearGradient><linearGradient id="c" gradientUnits="userSpaceOnUse" x1="47.0682" x2="72.2778" y1="79.5493" y2="35.8818"><stop offset="0" stop-opacity=".4"/><stop offset=".91"/></linearGradient><path d="m57.4455 97.4394c-6.7828-.0214-13.3302-2.4897-18.4392-6.9514 3.6504 3.744 8.1869 8.112 13.8029 13.497l4.6363 4.449 4.6364-4.455c5.3476-5.1356 9.7531-9.3601 13.3286-13.0043 0 0 .1061-.1622.2746-.4493-4.8111 4.6613-11.3132 6.914-18.2396 6.914z" fill="#000"/><path d="m80.2839 64.7854c-1.5145-4.9051-4.5582-9.1972-8.6861-12.2491-.2433-.1747-.4867-.3494-.7363-.5179l-.3494-.2184-.4119-.2683-.2246-.1373-.2247-.1373-.3182-.1872-.2746-.1497-.2059-.1186-.3057-.1622c-.1186-.0687-.2434-.1248-.362-.1872l-.443-.2184-.443-.206-.3682-.1622-.5117-.2184-.3245-.1248c-.1747-.0749-.3619-.1373-.5428-.2059l-.2996-.1061-.574-.1934h-.0749c3.251 1.3451 6.0301 3.6239 7.986 6.5484 1.956 2.9245 3.0009 6.3632 3.0026 9.8815.0054 1.598-.2713 3.1844-.8174 4.6862-1.3603 3.8251-4.5552 8.2867-11.3943 15.9245-1.4726 1.6474-3.1824 3.5131-5.1979 5.6784v-10.477s-3.2011 6.109-13.5533 6.109c-.3556 0-.7051 0-1.0545-.0374-.181 0-.3557 0-.5367-.0375h-.106c-1.5103-.1344-2.997-.4615-4.4242-.9734l-.287-.1186c-1.1836-.4781-2.3132-1.0806-3.3696-1.7971-.9506-.6473-1.8498-1.367-2.6895-2.1528-.1809-.1685-.3619-.3494-.5366-.5304l-.2122-.2246c-.1185-.1311-.2433-.2621-.3619-.3994l-.0998-.1123c-.4056-.4743-.7176-.8861-.9048-1.1544 2.0654 3.1699 4.992 6.5457 8.9918 10.6579 5.1071 4.4662 11.6547 6.939 18.4392 6.9638 6.9264 0 13.4285-2.2526 18.2395-6.9264 1.0962-1.8695 2.0434-3.8224 2.833-5.8406 1.6693-4.1112 2.6069-8.4826 2.7705-12.9168.0319-2.368-.3178-4.7258-1.0358-6.9826z" fill="url(#a)"/><path d="m89.0885 62.408c-.7426-3.5443-3.8064-8.8545-3.8064-8.8545-1.6654-2.9308-3.9247-5.4813-6.6331-7.488-4.0928-3.0192-9.0478-4.6424-14.1336-4.6301-3.7272-.0016-7.4028.8716-10.7311 2.5493-3.3283 1.6776-6.2164 4.113-8.432 7.1102-1.0025 1.3418-1.8581 2.7874-2.5521 4.3118l-.05.0936c1.6835-2.7903 4.163-5.0134 7.1199-6.3835 2.3276-1.064 4.8601-1.605 7.4193-1.5849 2.5124-.0082 5.001.4862 7.3196 1.4539h.0748l.5741.1934.2995.1061c.181.0686.3682.131.5429.2059l.3245.1248.5117.2184.3681.1623.4431.2059.443.2184c.1186.0624.2434.1185.3619.1872l.3058.1622.2059.1186.2746.1497.3182.1872.2247.1373.2246.1373.4056.2995.3432.2247c.2496.1684.493.3432.7363.5179 4.1279 3.0519 7.1716 7.344 8.6861 12.2491.7194 2.2545 1.0713 4.61 1.0421 6.9763-.175 4.4318-1.1232 8.799-2.8018 12.9043-.7895 2.0183-1.7368 3.9712-2.8329 5.8407-.1685.287-.2684.443-.2746.4493l.1373-.1436c1.3041-1.3353 2.496-2.5771 3.5693-3.744.106-.106.1996-.2121.2995-.3182.0998-.1061.3307-.3682.4929-.5491l.1311-.1435.1248-.1498.624-.7051c6.2837-7.2821 8.4053-12.4239 8.4053-20.3923-.0063-.8175-.0437-1.61-.1061-2.4087z" fill="url(#b)"/><path d="m45.1902 78.4074c-11.6751-5.8844-13.4223-15.7685-13.4223-21.1349-.0067-3.7732.8245-7.5009 2.4336-10.9138 2.5427-5.3922 6.8759-9.7364 12.2616-12.2928h.0562c-6.1402 2.4589-11.404 6.6991-15.1139 12.1749-3.7098 5.4758-5.696 11.9367-5.7028 18.5509v.3557c0 .8923.0375 1.7534.1061 2.5646.2546 3.2081 1.1187 6.3383 2.5459 9.2227l.0375.0687c.2038.416.4118.8216.624 1.2168.0811.1435.1685.287.2558.4243.1623.2829.3307.5574.5055.8237l.1248.2059c.312.443.624.8673.9859 1.248l.0998.1123c.1186.1373.2434.2683.3619.3994l.2122.2246c.1747.181.3557.3619.5366.5304.8398.7858 1.7389 1.5055 2.6895 2.1528 1.0565.7165 2.186 1.3189 3.3696 1.7971l.287.1186c1.4272.5119 2.914.839 4.4242.9734h.1872c.1809 0 .3557.0312.5366.0375.3495 0 .6989.0374 1.0546.0374 10.3521 0 13.5595-6.1339 13.5595-6.1339-6.0091.4493-13.0166-2.7643-13.0166-2.7643z" fill="#000"/><path d="m88.8825 60.3862c0-.1747-.05-.3556-.0812-.5304-.0312-.1747-.0312-.1996-.0499-.2995-.0499-.3182-.1123-.624-.1747-.9422-.2702-1.3968-.6308-2.7746-1.0795-4.1247-.0874-.2683-.1685-.5179-.2434-.73-.2121-.624-.3557-.9735-.3557-.9735-1.6379-4.2258-4.1288-8.0688-7.3173-11.2895-3.1885-3.2208-7.0064-5.7502-11.2155-7.4305-7.0214-2.7438-14.8185-2.7438-21.84 0h-.0561c-5.3858 2.5564-9.7189 6.9006-12.2616 12.2928-1.6092 3.4129-2.4404 7.1406-2.4336 10.9138 0 5.3664 1.7472 15.2505 13.4222 21.1348 0 0 7.0075 3.2136 12.9979 2.8517-.2537 0-.5221 0-.8049 0h-.0936c-3.744 0-7.176-1.6161-9.3226-2.939l-.7051-.5491c-.3862-.2193-.7391-.4925-1.0483-.8112l-.0437-.0437c-2.1366-1.924-3.864-4.2583-5.0794-6.864-.6449-1.4731-.9906-3.0597-1.0171-4.6675-.0354-3.4883.8908-6.9189 2.677-9.9154l.0499-.0936c.694-1.5244 1.5496-2.97 2.5521-4.3118 2.219-2.9915 5.1085-5.4208 8.4366-7.093s7.0019-2.5405 10.7265-2.5353c5.0787.0034 10.0221 1.6373 14.1024 4.6612 2.7084 2.0068 4.9677 4.5573 6.6331 7.488 0 0 3.0638 5.3103 3.8064 8.8546-.025-.7051-.0873-1.379-.1809-2.053z" fill="url(#c)"/><g fill="#000"><path d="m108.22 83.9298v-43.7612h8.593v36.2295h15.806v7.5317z"/><path d="m151.981 84.7784c-2.812.0459-5.594-.5854-8.112-1.8408-2.325-1.1612-4.302-2.9181-5.728-5.0918-1.379-2.2544-2.108-4.8456-2.108-7.488 0-2.6425.729-5.2337 2.108-7.488 1.42-2.1793 3.398-3.9377 5.728-5.0919 2.533-1.2126 5.305-1.8421 8.112-1.8421 2.808 0 5.58.6295 8.112 1.8421 2.325 1.158 4.298 2.9159 5.716 5.0919 1.379 2.2543 2.108 4.8455 2.108 7.488 0 2.6424-.729 5.2336-2.108 7.488-1.418 2.1759-3.391 3.9338-5.716 5.0918-2.517 1.2545-5.299 1.8858-8.112 1.8408zm0-6.9514c1.31.0128 2.601-.3163 3.744-.9547 1.116-.6192 2.043-1.5292 2.684-2.6333.642-1.1949.979-2.5306.979-3.8875s-.337-2.6926-.979-3.8875c-.638-1.1073-1.566-2.0198-2.684-2.6395-1.158-.6265-2.455-.9545-3.772-.9545s-2.613.328-3.772.9545c-1.109.6239-2.03 1.5358-2.664 2.6395-.643 1.1949-.98 2.5306-.98 3.8875s.337 2.6926.98 3.8875c.636 1.1005 1.556 2.0099 2.664 2.6333 1.168.6522 2.488.9818 3.825.9547z"/><path d="m187.824 84.7784c-2.003.0139-3.989-.3634-5.847-1.1107-1.794-.7304-3.436-1.7885-4.842-3.12-1.384-1.3004-2.501-2.8583-3.289-4.5864-.798-1.7638-1.205-3.6799-1.191-5.616-.009-1.889.375-3.7591 1.129-5.4912.749-1.7306 1.83-3.2973 3.182-4.6114 1.388-1.3614 3.026-2.442 4.824-3.1824 1.914-.7827 3.967-1.1691 6.034-1.1357 1.713-.0072 3.416.2432 5.054.7426 1.409.3894 2.734 1.0369 3.907 1.9094l-2.783 5.4912c-1.442-1.0083-3.172-1.5208-4.93-1.4601-1.502-.0497-2.986.3361-4.274 1.1107-1.133.7075-2.054 1.7078-2.665 2.8954-.605 1.1548-.92 2.4399-.917 3.744-.012 1.3658.33 2.7114.992 3.9062.649 1.1689 1.608 2.1362 2.771 2.7955 1.265.7103 2.698 1.068 4.149 1.0359.926.008 1.848-.1267 2.733-.3994.772-.2251 1.499-.5842 2.147-1.0608l2.783 5.4912c-1.183.839-2.5 1.4719-3.894 1.872-1.64.5219-3.352.785-5.073.78z"/><path d="m214.413 84.7784c-2.398.0269-4.755-.6219-6.802-1.872-2.05-1.2475-3.727-3.0234-4.855-5.1418-1.165-2.2906-1.779-4.8223-1.791-7.3925-.012-2.5701.578-5.1074 1.723-7.4087 1.097-2.1095 2.742-3.8853 4.761-5.1418 2.095-1.275 4.511-1.9245 6.964-1.872 1.856-.0135 3.694.3605 5.397 1.0982 1.593.6771 2.999 1.728 4.1 3.0639v-3.3197h8.112v27.1565h-8.112v-3.5818c-1.177 1.3721-2.629 2.4817-4.262 3.2573-1.636.7727-3.426 1.1672-5.235 1.1544zm2.414-6.9202c1.313.0203 2.606-.3138 3.744-.9672 1.088-.6367 1.98-1.5607 2.578-2.6707.631-1.1903.949-2.5217.923-3.8688.029-1.3556-.296-2.6954-.942-3.8875-.604-1.0984-1.492-2.0143-2.571-2.652-1.146-.6331-2.434-.9652-3.744-.9652s-2.598.3321-3.744.9652c-1.087.6415-1.983 1.5613-2.596 2.6645-.623 1.1956-.948 2.5238-.948 3.8719s.325 2.6763.948 3.8719c.601 1.1097 1.494 2.0334 2.584 2.6707 1.146.6566 2.448.9908 3.768.9672z"/><path d="m241.625 83.9298v-45.6144h8.112v45.6144z"/><path d="m272.389 84.7784c-2.748.0545-5.464-.5896-7.894-1.872-2.264-1.2055-4.17-2.9852-5.529-5.1605-1.371-2.2107-2.079-4.7683-2.04-7.3694-.01-1.9319.383-3.8446 1.154-5.616.755-1.7349 1.85-3.3008 3.22-4.6051 1.391-1.3225 3.022-2.3668 4.805-3.0763 1.881-.7431 3.887-1.116 5.909-1.0983 2.591-.0579 5.154.5479 7.444 1.7597 2.088 1.1358 3.817 2.8324 4.992 4.8984 1.222 2.2205 1.837 4.7234 1.785 7.2571v.624c0 .1685-.037.4805-.087.9423h-20.842c-.031 1.2668.296 2.5168.942 3.6067.638 1.0322 1.552 1.8646 2.64 2.4024 1.229.5966 2.583.8918 3.95.8611 1.295.0237 2.578-.2585 3.744-.8237 1.207-.6552 2.269-1.5489 3.12-2.627l5.865 2.9453c-1.276 2.1946-3.153 3.9786-5.41 5.1417-2.4 1.2354-5.069 1.8571-7.768 1.8096zm-6.79-17.8776h12.624c-.151-.9792-.539-1.9067-1.129-2.7019-.57-.758-1.321-1.3609-2.184-1.7534-.944-.4233-1.968-.6363-3.002-.624-1.072-.016-2.136.1967-3.12.624-.87.3791-1.622.9847-2.178 1.7534-.564.7986-.912 1.7293-1.011 2.7019z"/></g></svg>