<svg
   xmlns:svg="http://www.w3.org/2000/svg"
   xmlns="http://www.w3.org/2000/svg"
   xmlns:xlink="http://www.w3.org/1999/xlink"
viewBox="0 0 1039.06 430.59">
  <ellipse cx="958.12" cy="81.81" rx="72.88" ry="72.64" fill="#f8ed41"></ellipse>
  <ellipse class="cls-2" cx="956.94" cy="83.33" rx="22.28" ry="22.06"></ellipse>
  <path class="cls-2" d="M933.93 143.8h46.32v225.16h-46.32z"></path>
  <ellipse class="cls-3" cx="274.29" cy="83.33" rx="22.23" ry="22.06"></ellipse>
  <path class="cls-2"
    d="M792.89 147.98h119.79v40.7L834.2 329.02h79.66v39.94H784.04v-35.75l80.85-142.63h-73.77l.3-42.6h1.47zM657.46 243.83s.89-60.48 35.12-60.86c0 0 22.42-1.9 32.45 21.68v36.13h46V61.27L725.3 82.94l.29 72.27s-14.73-15.48-33.14-14.92c-1 0-6.74 0-7.74-.16-7.31-1.16-47.14 3.67-63 55.77 0 0-6.49 15.22-7.08 47.93z"></path>
  <path class="cls-3"
    d="M771.06 239.41h-46v70a32.13 32.13 0 01-23.66 22.28 19.74 19.74 0 01-4.64.54h-3.3c-12.46 0-24.08-8.68-29.87-22.9-2.87-7-5.13-16.24-6-28.24v-38.62h-42.91v26.14c0 3.92 1.31 18 1.8 21.9 2.51 20.18 16.78 79.61 68.72 82.8h5.63c5.06 0 16-.94 20.83-2.88s11-5.06 14.85-9.29v7.35l44.55.45z"></path>
  <path class="cls-2"
    d="M53 65.83h44.85l81.83 188.65V65.83h44.84v302.24h-44.06l-83.4-191.69.79 191.69H53V65.83zM252.85 142.15h45.63v227.69h-45.63zM332.76 142.09h42.93v15s17.11-16.35 42.34-15c0 0 27-3.43 47.8 24.15 0 0 19.32-25 46.47-24.29 0 0 51.82-3.46 70.36 50a53.47 53.47 0 012.81 17.44v160.85h-44.26V210.17s1.33-27.77-30.53-28.72a36.34 36.34 0 00-13.36 3.56c-9.8 4.78-16.15 17.1-16.14 30.62l.14 154.66h-44.41l.14-155c0-12.15-5.09-23.55-13.5-29a31.64 31.64 0 00-17.47-4.85s-18.14-2.34-26.29 17.32a39.33 39.33 0 00-2.78 14.88l-.14 156.64h-44.11z"></path>
</svg>