<svg fill="none" height="128" viewBox="0 0 312 128" width="312" xmlns="http://www.w3.org/2000/svg"><path d="m228.524 53.8259c6.701 0 12.134-5.438 12.134-12.1463 0-6.7082-5.433-12.1463-12.134-12.1463-6.702 0-12.135 5.4381-12.135 12.1463 0 6.7083 5.433 12.1463 12.135 12.1463z" fill="#bababa"/><g fill="#000"><path d="m228.327 45.6225c2.049 0 3.71-1.6515 3.71-3.6887s-1.661-3.6887-3.71-3.6887c-2.048 0-3.709 1.6515-3.709 3.6887s1.661 3.6887 3.709 3.6887z"/><path d="m224.496 52.0451h7.712v37.6496h-7.712z"/><path d="m114.668 45.6225c2.045 0 3.702-1.6515 3.702-3.6887s-1.657-3.6887-3.702-3.6887c-2.044 0-3.701 1.6515-3.701 3.6887s1.657 3.6887 3.701 3.6887z"/><path d="m201.013 52.7441h19.945v6.8056l-13.067 23.4665h13.264v6.6785h-21.615v-5.9778l13.461-23.8495h-12.282l.05-7.1233zm-22.548 16.0273s.148-10.113 5.847-10.1765c0 0 3.733-.3177 5.403 3.6251v6.0414h7.659v-30.0163l-7.614 3.6235.048 12.0845s-2.452-2.5885-5.517-2.4949c-.167 0-1.123 0-1.289-.0267-1.217-.194-7.849.6137-10.489 9.3254 0 0-1.081 2.545-1.179 8.0145z"/><path d="m197.379 68.0323h-7.659v11.7049c-.268.9166-.774 1.745-1.466 2.3998-.693.6549-1.546 1.1125-2.473 1.3257-.253.0607-.513.091-.773.0903h-.549c-2.075 0-4.01-1.4514-4.974-3.8292-.477-1.1705-.854-2.7155-.999-4.7221v-6.4577h-7.144v4.3709c0 .6555.218 3.0098.3 3.662.418 3.3743 2.794 13.3118 11.441 13.8452h.938c.842 0 2.664-.1572 3.468-.4816s1.831-.8461 2.472-1.5534v1.229l7.418.0752z"/><path d="m77.8243 39.0076h7.4674l13.6244 31.5446v-31.5446h7.4659v50.5383h-7.336l-13.8858-32.053.1315 32.053h-7.4674zm33.2747 12.7616h7.597v38.0726h-7.597zm13.304-.01h7.148v2.5082s2.849-2.7339 7.05-2.5082c0 0 4.495-.5735 7.958 4.0382 0 0 3.217-4.1803 7.737-4.0616 0 0 8.628-.5785 11.715 8.3606.316.9393.474 1.9248.468 2.9162v26.8961h-7.369v-26.7657s.221-4.6435-5.083-4.8023c-.773.0536-1.528.2557-2.225.5953-1.632.7992-2.689 2.8593-2.687 5.12l.023 25.8611h-7.394l.023-25.9179c0-2.0317-.847-3.9379-2.247-4.8492-.87-.5495-1.881-.8314-2.909-.811 0 0-3.02-.3913-4.377 2.8961-.313.7915-.471 1.6365-.463 2.4882l-.023 26.1921h-7.345z"/></g></svg>