<svg fill="none" height="128" viewBox="0 0 312 128" width="312" xmlns="http://www.w3.org/2000/svg" xmlns:xlink="http://www.w3.org/1999/xlink"><clipPath id="a"><path d="m17 40h277v48h-277z"/></clipPath><g clip-path="url(#a)" fill="#000"><path d="m17 40.8747h7.9714v46.2187h-7.9714z"/><path d="m32.9429 40.8747h7.9714v46.2187h-7.9714z" fill-opacity=".8"/><path d="m48.8857 40.8747h7.9715v46.2187h-7.9715z" fill-opacity=".6"/><path d="m64.8286 40.8747h7.9714v46.2187h-7.9714z" fill-opacity=".4"/><path d="m80.7715 40.8747h7.9714v46.2187h-7.9714z" fill-opacity=".2"/><path d="m229.139 40.6381h11.203v30.3428c0 3.6159-.756 6.6789-2.267 9.1889-1.51 2.4887-3.627 4.3712-6.352 5.6473-2.723 1.2763-5.926 1.9144-9.607 1.9144-3.638 0-6.84-.6381-9.607-1.9144-2.744-1.2761-4.893-3.1586-6.446-5.6473-1.532-2.51-2.299-5.573-2.299-9.1889v-30.3428h11.235v30.3428c0 1.9143.277 3.4777.831 4.6901.553 1.1912 1.361 2.0633 2.425 2.6163 1.063.553 2.351.8295 3.861.8295 1.532 0 2.82-.2765 3.863-.8295s1.83-1.4251 2.361-2.6163c.533-1.2124.799-2.7758.799-4.6901z"/><path d="m282.444 74.7458c0-.7232-.106-1.372-.319-1.9463-.212-.5956-.606-1.1486-1.18-1.6591-.576-.5104-1.405-1.0211-2.49-1.5316-1.064-.5316-2.468-1.0847-4.214-1.659-2.042-.6807-4.01-1.4464-5.904-2.2973-1.894-.8721-3.585-1.8824-5.074-3.0311-1.491-1.1698-2.671-2.5312-3.543-4.084-.873-1.574-1.309-3.4033-1.309-5.4878 0-1.9994.447-3.7968 1.341-5.3921.893-1.6166 2.138-2.9886 3.734-4.1159 1.617-1.1486 3.511-2.0207 5.68-2.6163 2.172-.6169 4.544-.9253 7.119-.9253 3.404 0 6.404.5956 9 1.7867 2.617 1.1699 4.66 2.8397 6.128 5.0093 1.489 2.1483 2.234 4.6902 2.234 7.6256h-11.138c0-1.1699-.246-2.2016-.735-3.0949-.469-.8934-1.181-1.5953-2.138-2.1058-.958-.5105-2.16-.7658-3.606-.7658-1.405 0-2.586.2127-3.544.6382-.957.4254-1.681.9997-2.17 1.7229-.49.7019-.733 1.4783-.733 2.3291 0 .702.191 1.3401.573 1.9144.405.553.968 1.0741 1.692 1.5634.745.4892 1.639.9572 2.682 1.4038 1.063.4467 2.254.8828 3.574 1.3082 2.468.7871 4.66 1.6697 6.575 2.6483 1.935.957 3.563 2.0526 4.883 3.2863 1.341 1.2124 2.352 2.5949 3.032 4.1477.702 1.5528 1.053 3.3077 1.053 5.2645 0 2.0846-.404 3.9351-1.212 5.5517-.81 1.6167-1.969 2.9886-3.48 4.1158-1.51 1.1063-3.32 1.9463-5.426 2.5207-2.106.5742-4.457.8614-7.053.8614-2.383 0-4.735-.2977-7.053-.8933-2.299-.6169-4.384-1.5527-6.256-2.8077-1.873-1.2762-3.373-2.9035-4.501-4.8816-1.106-1.9995-1.659-4.3712-1.659-7.1152h11.235c0 1.3614.18 2.51.542 3.4459.362.936.894 1.6911 1.596 2.2653.703.5531 1.564.9572 2.586 1.2124 1.02.2341 2.19.3511 3.51.3511 1.426 0 2.575-.2021 3.447-.6063.872-.4253 1.511-.9784 1.915-1.659.405-.7021.606-1.4677.606-2.2973z"/><path clip-rule="evenodd" d="m157.193 87.0934h-12.033l17.076-46.4553h10.564l17.171 46.4553h-12.064l-2.688-8.6784h-15.346zm10.342-33.4924 5.007 16.1674h-9.999z" fill-rule="evenodd"/><path d="m122.877 87.0934h-11.203v-37.8087h-13.6603v-8.6466h38.8433v8.6466h-13.98z"/></g></svg>