<svg fill="none" height="128" viewBox="0 0 312 128" width="312" xmlns="http://www.w3.org/2000/svg" xmlns:xlink="http://www.w3.org/1999/xlink"><clipPath id="a"><path d="m73 40h165.6v48h-165.6z"/></clipPath><g clip-path="url(#a)"><path d="m219.303 40c-4.816-.0047-9.459 1.785-13.019 5.0179-2.774-2.5128-6.219-4.1691-9.918-4.768-3.698-.5989-7.492-.1147-10.921 1.394-3.428 1.5087-6.343 3.9769-8.393 7.1053-2.049 3.1284-3.143 6.7825-3.151 10.519v21.5894c0 1.6776.669 3.2865 1.858 4.4728 1.19 1.1862 2.804 1.8526 4.486 1.8526 1.683 0 3.296-.6664 4.486-1.8526 1.19-1.1863 1.858-2.7952 1.858-4.4728v-21.5904c0-1.7653.703-3.4583 1.955-4.7066s2.95-1.9495 4.721-1.9495c1.77 0 3.468.7012 4.72 1.9495s1.955 2.9413 1.955 4.7066v21.5895c0 1.6776.668 3.2865 1.858 4.4727 1.19 1.1863 2.803 1.8527 4.486 1.8527 1.682 0 3.296-.6664 4.486-1.8527 1.189-1.1862 1.858-2.7951 1.858-4.4727v-21.5895c0-1.7653.703-3.4583 1.955-4.7066s2.95-1.9495 4.72-1.9495c1.771 0 3.469.7012 4.721 1.9495 1.251 1.2483 1.955 2.9413 1.955 4.7066v21.5895c0 1.6777.668 3.2867 1.858 4.4731 1.19 1.1863 2.803 1.8528 4.486 1.8528s3.296-.6665 4.486-1.8528c1.19-1.1864 1.858-2.7954 1.858-4.4731v-21.5895c-.011-5.1135-2.056-10.0138-5.686-13.6258-3.63-3.6121-8.549-5.6409-13.677-5.6414m-105.67 47.1706c1.253.0019 2.478-.3669 3.521-1.0599 1.042-.6929 1.855-1.6788 2.336-2.8328.48-1.1539.606-2.424.362-3.6495s-.847-2.3513-1.733-3.2348l-12.872-12.8073 12.872-12.8113c1.173-1.1893 1.826-2.7927 1.818-4.4605-.008-1.6679-.677-3.2649-1.86-4.4431-1.184-1.1781-2.788-1.8418-4.46-1.8464-1.673-.0045-3.28.6504-4.47 1.8221l-17.3592 17.2732c-.5889.5857-1.056 1.2815-1.3748 2.0475s-.4828 1.5872-.4828 2.4165c0 .8294.164 1.6506.4828 2.4166s.7859 1.4618 1.3748 2.0475l17.3592 17.2713c.589.5874 1.288 1.0532 2.058 1.3705s1.595.4799 2.428.4785m57.523-40.6522c-.001 1.6759-.671 3.2825-1.86 4.4664-1.19 1.1839-2.803 1.8481-4.483 1.8466h-11.018v28.0262c0 1.6777-.668 3.2867-1.858 4.4731-1.19 1.1863-2.803 1.8528-4.486 1.8528s-3.296-.6665-4.486-1.8528c-1.19-1.1864-1.858-2.7954-1.858-4.4731v-28.0243h-11.015c-.838.0103-1.669-.1454-2.446-.458s-1.485-.7759-2.081-1.3631-1.069-1.2866-1.393-2.0576c-.323-.771-.489-1.5982-.489-2.4338s.166-1.6629.489-2.4339c.324-.7709.797-1.4703 1.393-2.0575s1.304-1.0505 2.081-1.3631 1.608-.4683 2.446-.458h34.72c1.68-.0015 3.293.6627 4.483 1.8466 1.189 1.1839 1.859 2.7905 1.86 4.4664" fill="#000"/><path d="m74.8543 41.848c-.5891.5856-1.0565 1.2813-1.3754 2.0473s-.4831 1.5873-.4831 2.4167.1642 1.6506.4831 2.4167c.3189.766.7863 1.4617 1.3754 2.0473l12.8735 12.8093-12.8735 12.8083c-1.1726 1.1894-1.8262 2.7927-1.8182 4.4605.008 1.6679.6769 3.2649 1.8609 4.4431 1.184 1.1781 2.787 1.8418 4.4597 1.8464s3.2794-.6504 4.4698-1.822l17.3595-17.2733 4.486-4.463-21.8416-21.7373c-1.1911-1.1839-2.8043-1.8487-4.4861-1.8487s-3.2951.6648-4.4862 1.8487" fill="#464646"/></g></svg>