<svg width="303" height="135" viewBox="0 0 303 135" fill="none" xmlns="http://www.w3.org/2000/svg">
<g clip-path="url(#clip0_8_2)">
<path d="M0 78.37C0 76.54 0.32 74.82 0.97 73.22C1.61 71.62 2.53 70.24 3.72 69.05C4.91 67.87 6.34 66.94 7.99 66.26C9.65 65.58 11.5 65.24 13.55 65.24C15.6 65.24 17.43 65.58 19.11 66.26C20.79 66.94 22.22 67.87 23.4 69.05C24.58 70.23 25.5 71.62 26.15 73.22C26.81 74.82 27.13 76.53 27.13 78.37C27.13 80.21 26.8 82.01 26.15 83.64C25.49 85.27 24.58 86.7 23.4 87.91C22.22 89.12 20.79 90.08 19.11 90.77C17.43 91.46 15.58 91.81 13.55 91.81C11.52 91.81 9.65 91.46 7.99 90.77C6.33 90.08 4.91 89.13 3.72 87.91C2.53 86.69 1.61 85.27 0.97 83.64C0.32 82.01 0 80.25 0 78.37ZM7.79 78.37C7.79 79.3 7.93 80.17 8.22 80.98C8.51 81.79 8.9 82.49 9.4 83.07C9.9 83.65 10.5 84.11 11.21 84.45C11.91 84.78 12.69 84.95 13.55 84.95C14.41 84.95 15.19 84.78 15.91 84.45C16.63 84.12 17.23 83.66 17.73 83.07C18.23 82.49 18.62 81.79 18.91 80.98C19.2 80.17 19.34 79.3 19.34 78.37C19.34 77.49 19.2 76.66 18.91 75.89C18.62 75.12 18.23 74.45 17.73 73.91C17.23 73.36 16.62 72.93 15.91 72.61C15.2 72.29 14.41 72.13 13.55 72.13C12.69 72.13 11.91 72.29 11.21 72.61C10.51 72.93 9.9 73.37 9.4 73.91C8.9 74.46 8.51 75.12 8.22 75.89C7.93 76.66 7.79 77.49 7.79 78.37Z" fill="white"/>
<path d="M30.46 68C30.46 66.45 31.25 65.68 32.82 65.68H41.72C43.01 65.68 44.17 65.91 45.22 66.38C46.27 66.85 47.17 67.48 47.92 68.29C48.67 69.1 49.25 70.07 49.65 71.2C50.06 72.33 50.26 73.55 50.26 74.86C50.26 76.17 50.06 77.43 49.65 78.56C49.24 79.69 48.67 80.68 47.92 81.51C47.17 82.34 46.27 82.99 45.22 83.46C44.17 83.92 43 84.16 41.72 84.16H38V89.06C38 90.61 37.23 91.38 35.68 91.38H32.82C31.25 91.38 30.46 90.61 30.46 89.06V68ZM40.11 77.72C41.02 77.72 41.66 77.44 42.04 76.88C42.42 76.32 42.61 75.65 42.61 74.86C42.61 74.07 42.43 73.42 42.06 72.89C41.69 72.37 41.09 72.1 40.25 72.1H38V77.71H40.11V77.72Z" fill="white"/>
<path d="M53.12 68C53.12 66.45 53.91 65.68 55.48 65.68H67.46C69.01 65.68 69.78 66.45 69.78 68V69.79C69.78 71.34 69.01 72.11 67.46 72.11H60.67V75.22H65.53C67.1 75.22 67.89 75.99 67.89 77.54V79.33C67.89 80.88 67.1 81.65 65.53 81.65H60.67V84.94H67.89C69.46 84.94 70.25 85.71 70.25 87.26V89.05C70.25 90.6 69.46 91.37 67.89 91.37H55.48C53.91 91.37 53.12 90.6 53.12 89.05V67.99V68Z" fill="white"/>
<path d="M73.5 68C73.5 66.45 74.29 65.68 75.86 65.68H79.29C79.96 65.68 80.51 65.81 80.95 66.06C81.39 66.31 81.77 66.71 82.08 67.26L86.3 75.52C86.56 76 86.82 76.51 87.07 77.06C87.32 77.61 87.55 78.12 87.77 78.6C88.03 79.17 88.27 79.72 88.49 80.24H88.56C88.49 79.67 88.43 79.1 88.38 78.52C88.33 78.04 88.3 77.53 88.27 76.98C88.25 76.43 88.23 75.94 88.23 75.51V68C88.23 66.45 89 65.68 90.55 65.68H93.41C94.98 65.68 95.77 66.45 95.77 68V89.06C95.77 90.61 94.98 91.38 93.41 91.38H89.98C89.34 91.38 88.79 91.26 88.35 91C87.91 90.75 87.53 90.35 87.22 89.8L82.97 81.58C82.71 81.13 82.45 80.63 82.2 80.08C81.95 79.53 81.72 79.02 81.5 78.54C81.24 77.99 81 77.44 80.79 76.9H80.72C80.77 77.47 80.81 78.04 80.86 78.62C80.91 79.1 80.95 79.6 80.99 80.14C81.03 80.68 81.04 81.16 81.04 81.59V89.06C81.04 90.61 80.27 91.38 78.72 91.38H75.86C74.29 91.38 73.5 90.61 73.5 89.06V68Z" fill="white"/>
<path d="M109.65 68C109.65 66.45 110.44 65.68 112.01 65.68H114.87C116.42 65.68 117.19 66.45 117.19 68V84.95H124.88C126.45 84.95 127.24 85.72 127.24 87.27V89.06C127.24 90.61 126.45 91.38 124.88 91.38H112.01C110.44 91.38 109.65 90.61 109.65 89.06V68Z" fill="white"/>
<path d="M135.28 67.57C135.71 66.31 136.59 65.67 137.93 65.67H141.83C143.16 65.67 144.05 66.3 144.48 67.57L151.45 88.7C151.74 89.51 151.7 90.16 151.34 90.65C150.98 91.14 150.39 91.38 149.55 91.38H146.65C145.31 91.38 144.43 90.72 144 89.41L143.46 86.91H136.2L135.66 89.41C135.3 90.72 134.44 91.38 133.09 91.38H130.19C129.36 91.38 128.76 91.14 128.4 90.65C128.04 90.16 128.01 89.51 128.29 88.7L135.26 67.57H135.28ZM141.75 80.94L140.96 77.36C140.84 76.93 140.72 76.44 140.6 75.88C140.48 75.32 140.36 74.8 140.24 74.32C140.12 73.75 140 73.18 139.88 72.6H139.81C139.69 73.17 139.57 73.74 139.45 74.32C139.33 74.8 139.22 75.32 139.11 75.88C139 76.44 138.89 76.93 138.77 77.36L137.91 80.94H141.74H141.75Z" fill="white"/>
<path d="M154.33 68C154.33 66.45 155.12 65.68 156.69 65.68H160.12C160.79 65.68 161.34 65.81 161.78 66.06C162.22 66.31 162.6 66.71 162.91 67.26L167.13 75.52C167.39 76 167.65 76.51 167.9 77.06C168.15 77.61 168.38 78.12 168.6 78.6C168.86 79.17 169.1 79.72 169.32 80.24H169.39C169.32 79.67 169.26 79.1 169.21 78.52C169.16 78.04 169.13 77.53 169.1 76.98C169.08 76.43 169.06 75.94 169.06 75.51V68C169.06 66.45 169.83 65.68 171.38 65.68H174.24C175.81 65.68 176.6 66.45 176.6 68V89.06C176.6 90.61 175.81 91.38 174.24 91.38H170.81C170.17 91.38 169.62 91.26 169.18 91C168.74 90.75 168.36 90.35 168.05 89.8L163.8 81.58C163.54 81.13 163.28 80.63 163.03 80.08C162.78 79.53 162.55 79.02 162.33 78.54C162.07 77.99 161.83 77.44 161.62 76.9H161.55C161.6 77.47 161.64 78.04 161.69 78.62C161.74 79.1 161.78 79.6 161.82 80.14C161.86 80.68 161.87 81.16 161.87 81.59V89.06C161.87 90.61 161.1 91.38 159.55 91.38H156.69C155.12 91.38 154.33 90.61 154.33 89.06V68Z" fill="white"/>
<path d="M179.93 78.73C179.93 76.75 180.27 74.94 180.95 73.28C181.63 71.62 182.58 70.2 183.79 69.01C185.01 67.82 186.45 66.89 188.13 66.24C189.81 65.58 191.65 65.26 193.65 65.26C194.65 65.26 195.6 65.34 196.49 65.49C197.38 65.65 198.19 65.84 198.9 66.08C199.61 66.32 200.23 66.56 200.76 66.81C201.28 67.06 201.68 67.28 201.94 67.47C202.58 67.95 202.95 68.43 203.03 68.92C203.11 69.41 202.95 70 202.55 70.69L201.44 72.48C201.03 73.12 200.57 73.48 200.05 73.55C199.53 73.62 198.91 73.48 198.19 73.12C197.57 72.83 196.97 72.6 196.38 72.41C195.8 72.22 195.05 72.12 194.15 72.12C192.96 72.12 191.95 72.29 191.13 72.64C190.31 72.99 189.65 73.44 189.15 74.02C188.65 74.59 188.29 75.25 188.06 75.99C187.83 76.73 187.72 77.49 187.72 78.28C187.72 79.35 187.9 80.3 188.26 81.12C188.62 81.94 189.09 82.64 189.67 83.21C190.25 83.78 190.93 84.22 191.69 84.52C192.45 84.82 193.25 84.97 194.09 84.97C194.88 84.97 195.55 84.89 196.11 84.74C196.67 84.59 197.12 84.41 197.45 84.22C197.86 83.98 198.18 83.72 198.42 83.43V82.54H197.38C195.83 82.54 195.06 81.75 195.06 80.18V78.46C195.06 76.91 195.83 76.14 197.38 76.14H202.71C204.28 76.14 205.07 76.91 205.07 78.46V89.08C205.07 90.63 204.28 91.4 202.71 91.4H201.32C200.56 91.4 199.98 91.22 199.59 90.86C199.2 90.5 199 90.09 199 89.61V89.93V89.82C199 89.82 199.01 89.78 199.04 89.78H198.97C198.54 90.19 198.02 90.53 197.4 90.82C196.88 91.08 196.22 91.31 195.43 91.52C194.64 91.73 193.71 91.82 192.64 91.82C191.02 91.82 189.45 91.53 187.92 90.94C186.39 90.36 185.04 89.5 183.86 88.38C182.68 87.26 181.73 85.89 181.02 84.27C180.3 82.65 179.95 80.8 179.95 78.73H179.93Z" fill="white"/>
<path d="M208.49 68C208.49 66.45 209.26 65.68 210.81 65.68H213.71C215.26 65.68 216.03 66.45 216.03 68V81.76C216.03 82.83 216.35 83.63 216.98 84.16C217.61 84.68 218.46 84.95 219.54 84.95C220.62 84.95 221.47 84.69 222.11 84.18C222.75 83.67 223.08 82.87 223.08 81.8V68C223.08 66.45 223.85 65.68 225.4 65.68H228.26C229.81 65.68 230.58 66.45 230.58 68V81.76C230.58 83.21 230.32 84.55 229.79 85.78C229.27 87.01 228.53 88.07 227.57 88.96C226.62 89.85 225.46 90.55 224.1 91.05C222.74 91.55 221.23 91.8 219.56 91.8C217.89 91.8 216.34 91.55 214.98 91.05C213.62 90.55 212.46 89.85 211.49 88.96C210.53 88.07 209.78 87.01 209.26 85.78C208.74 84.55 208.47 83.21 208.47 81.76V68H208.49Z" fill="white"/>
<path d="M239.63 67.57C240.06 66.31 240.94 65.67 242.28 65.67H246.18C247.51 65.67 248.4 66.3 248.83 67.57L255.8 88.7C256.09 89.51 256.05 90.16 255.69 90.65C255.33 91.14 254.74 91.38 253.9 91.38H251C249.66 91.38 248.78 90.72 248.35 89.41L247.81 86.91H240.55L240.01 89.41C239.65 90.72 238.79 91.38 237.44 91.38H234.54C233.71 91.38 233.11 91.14 232.75 90.65C232.39 90.16 232.36 89.51 232.64 88.7L239.61 67.57H239.63ZM246.1 80.94L245.31 77.36C245.19 76.93 245.07 76.44 244.95 75.88C244.83 75.32 244.71 74.8 244.59 74.32C244.47 73.75 244.35 73.18 244.23 72.6H244.16C244.04 73.17 243.92 73.74 243.8 74.32C243.68 74.8 243.57 75.32 243.46 75.88C243.35 76.44 243.24 76.93 243.12 77.36L242.26 80.94H246.09H246.1Z" fill="white"/>
<path d="M257.01 78.73C257.01 76.75 257.35 74.94 258.03 73.28C258.71 71.62 259.66 70.2 260.87 69.01C262.09 67.82 263.53 66.89 265.21 66.24C266.89 65.58 268.73 65.26 270.73 65.26C271.73 65.26 272.68 65.34 273.57 65.49C274.46 65.65 275.27 65.84 275.98 66.08C276.69 66.32 277.31 66.56 277.84 66.81C278.37 67.06 278.76 67.28 279.02 67.47C279.66 67.95 280.03 68.43 280.11 68.92C280.19 69.41 280.03 70 279.63 70.69L278.52 72.48C278.11 73.12 277.65 73.48 277.13 73.55C276.61 73.62 275.99 73.48 275.27 73.12C274.65 72.83 274.05 72.6 273.47 72.41C272.89 72.22 272.14 72.12 271.24 72.12C270.05 72.12 269.04 72.29 268.22 72.64C267.4 72.99 266.74 73.44 266.24 74.02C265.74 74.59 265.38 75.25 265.15 75.99C264.92 76.73 264.81 77.49 264.81 78.28C264.81 79.35 264.99 80.3 265.35 81.12C265.71 81.94 266.18 82.64 266.76 83.21C267.34 83.78 268.02 84.22 268.78 84.52C269.54 84.82 270.34 84.97 271.17 84.97C271.96 84.97 272.63 84.89 273.19 84.74C273.75 84.59 274.2 84.41 274.53 84.22C274.93 83.98 275.26 83.72 275.49 83.43V82.54H274.45C272.9 82.54 272.13 81.75 272.13 80.18V78.46C272.13 76.91 272.9 76.14 274.45 76.14H279.78C281.35 76.14 282.14 76.91 282.14 78.46V89.08C282.14 90.63 281.35 91.4 279.78 91.4H278.39C277.63 91.4 277.05 91.22 276.66 90.86C276.27 90.5 276.07 90.09 276.07 89.61V89.93V89.82C276.07 89.82 276.08 89.78 276.11 89.78H276.04C275.61 90.19 275.09 90.53 274.47 90.82C273.95 91.08 273.29 91.31 272.51 91.52C271.72 91.72 270.79 91.82 269.72 91.82C268.1 91.82 266.53 91.53 265 90.94C263.47 90.36 262.12 89.5 260.94 88.38C259.76 87.26 258.81 85.89 258.1 84.27C257.38 82.65 257.03 80.8 257.03 78.73H257.01Z" fill="white"/>
<path d="M285.78 68C285.78 66.45 286.57 65.68 288.14 65.68H300.12C301.67 65.68 302.44 66.45 302.44 68V69.79C302.44 71.34 301.67 72.11 300.12 72.11H293.33V75.22H298.19C299.76 75.22 300.55 75.99 300.55 77.54V79.33C300.55 80.88 299.76 81.65 298.19 81.65H293.33V84.94H300.55C302.12 84.94 302.91 85.71 302.91 87.26V89.05C302.91 90.6 302.12 91.37 300.55 91.37H288.14C286.57 91.37 285.78 90.6 285.78 89.05V67.99V68Z" fill="white"/>
<path d="M186.98 36C188.06 33.21 188.91 30.4 189.51 27.56C190.11 24.72 190.42 21.88 190.42 19.03C190.42 16.43 190.14 13.84 189.58 11.27C189.02 8.69997 188.19 6.18997 187.07 3.73997C186.54 2.65997 186.45 1.78997 186.79 1.13997C187.13 0.489973 187.89 0.159973 189.07 0.159973H190.6C191.44 0.159973 192.15 0.319973 192.74 0.619973C193.33 0.929973 193.84 1.45997 194.27 2.19997C195.79 4.82997 196.94 7.54997 197.73 10.36C198.52 13.17 198.92 16.07 198.92 19.08C198.92 22.61 198.51 25.94 197.69 29.05C196.87 32.16 195.71 35.06 194.23 37.72C193.42 39.08 192.23 39.77 190.65 39.77H189.12C187.94 39.77 187.17 39.43 186.8 38.75C186.43 38.07 186.49 37.15 186.99 36.01L186.98 36Z" fill="white"/>
<path d="M138.57 20.42C138.57 18.6 138.89 16.9 139.54 15.33C140.19 13.75 141.09 12.38 142.25 11.22C143.41 10.06 144.78 9.15 146.37 8.49C147.96 7.83 149.7 7.5 151.59 7.5C153.48 7.5 155.22 7.83 156.81 8.49C158.4 9.15 159.77 10.06 160.92 11.22C162.07 12.38 162.96 13.75 163.61 15.33C164.26 16.91 164.58 18.61 164.58 20.42C164.58 22.23 164.26 24.02 163.61 25.64C162.96 27.25 162.07 28.66 160.92 29.85C159.77 31.05 158.4 31.98 156.81 32.67C155.22 33.35 153.48 33.69 151.59 33.69C149.7 33.69 147.96 33.35 146.37 32.67C144.78 31.99 143.41 31.05 142.25 29.85C141.09 28.65 140.19 27.25 139.54 25.64C138.89 24.03 138.57 22.29 138.57 20.42ZM142.23 20.42C142.23 21.83 142.46 23.15 142.93 24.37C143.4 25.59 144.05 26.65 144.88 27.54C145.72 28.44 146.71 29.14 147.86 29.66C149.01 30.17 150.25 30.43 151.59 30.43C152.93 30.43 154.17 30.17 155.32 29.66C156.47 29.15 157.45 28.44 158.28 27.54C159.1 26.64 159.75 25.59 160.22 24.37C160.69 23.15 160.92 21.84 160.92 20.42C160.92 19 160.69 17.78 160.22 16.6C159.75 15.42 159.11 14.39 158.28 13.53C157.46 12.67 156.47 11.99 155.32 11.5C154.17 11.01 152.93 10.76 151.59 10.76C150.25 10.76 149.01 11.01 147.86 11.5C146.71 11.99 145.72 12.67 144.88 13.53C144.04 14.39 143.39 15.41 142.93 16.6C142.46 17.78 142.23 19.06 142.23 20.42Z" fill="white"/>
<path d="M109 37.8C107.45 35.07 106.25 32.14 105.4 28.99C104.55 25.84 104.12 22.49 104.12 18.92C104.12 15.91 104.52 13.01 105.33 10.2C106.14 7.4 107.28 4.68 108.77 2.04C109.2 1.3 109.72 0.77 110.3 0.46C110.89 0.15 111.6 0 112.44 0H113.79C115 0 115.8 0.33 116.18 0.98C116.57 1.63 116.5 2.5 115.97 3.58C114.88 6.03 114.06 8.54 113.48 11.11C112.91 13.68 112.62 16.27 112.62 18.87C112.62 21.78 112.92 24.67 113.53 27.52C114.13 30.37 115.02 33.21 116.2 36.03C116.66 37.11 116.7 37.98 116.32 38.63C115.93 39.28 115.15 39.61 113.97 39.61H112.44C111.6 39.61 110.91 39.47 110.37 39.19C109.83 38.91 109.37 38.45 109 37.8Z" fill="white"/>
<path d="M0 101.32C0 100.26 0.53 99.74 1.58 99.74H17.08C18.14 99.74 18.66 100.27 18.66 101.32V102.28C18.66 103.34 18.13 103.86 17.08 103.86H4.7V114.99H14.97C16.03 114.99 16.55 115.52 16.55 116.57V117.53C16.55 118.59 16.02 119.11 14.97 119.11H4.7V132.02C4.7 133.08 4.17 133.6 3.12 133.6H1.58C0.52 133.6 0 133.07 0 132.02V101.31V101.32Z" fill="white"/>
<path d="M22.07 116.44C22.07 114.01 22.5 111.74 23.37 109.63C24.23 107.52 25.44 105.69 26.99 104.14C28.54 102.59 30.38 101.37 32.51 100.49C34.64 99.61 36.96 99.17 39.49 99.17C42.02 99.17 44.34 99.61 46.47 100.49C48.6 101.37 50.43 102.59 51.96 104.14C53.5 105.69 54.7 107.52 55.56 109.63C56.42 111.74 56.86 114.01 56.86 116.44C56.86 118.87 56.43 121.26 55.56 123.42C54.7 125.58 53.5 127.46 51.96 129.06C50.42 130.66 48.59 131.92 46.47 132.83C44.35 133.74 42.01 134.2 39.49 134.2C36.97 134.2 34.64 133.74 32.51 132.83C30.38 131.92 28.54 130.66 26.99 129.06C25.44 127.46 24.23 125.58 23.37 123.42C22.51 121.26 22.07 118.93 22.07 116.44ZM26.97 116.44C26.97 118.33 27.28 120.09 27.91 121.72C28.53 123.35 29.4 124.77 30.53 125.97C31.65 127.17 32.98 128.11 34.51 128.8C36.05 129.49 37.71 129.83 39.5 129.83C41.29 129.83 42.96 129.49 44.49 128.8C46.03 128.11 47.35 127.17 48.45 125.97C49.55 124.77 50.42 123.35 51.04 121.72C51.66 120.09 51.98 118.33 51.98 116.44C51.98 114.55 51.67 112.91 51.04 111.33C50.42 109.75 49.55 108.38 48.45 107.23C47.35 106.08 46.03 105.17 44.49 104.52C42.95 103.86 41.29 103.54 39.5 103.54C37.71 103.54 36.04 103.87 34.51 104.52C32.97 105.18 31.65 106.08 30.53 107.23C29.41 108.38 28.54 109.75 27.91 111.33C27.29 112.91 26.97 114.62 26.97 116.44Z" fill="white"/>
<path d="M62.91 101.32C62.91 100.26 63.44 99.74 64.49 99.74H66.07C67.09 99.74 67.61 100.27 67.61 101.32V121.57C67.61 124.16 68.39 126.19 69.96 127.64C71.53 129.1 73.61 129.82 76.2 129.82C78.79 129.82 80.87 129.09 82.44 127.64C84.01 126.18 84.79 124.15 84.79 121.52V101.32C84.79 100.26 85.32 99.74 86.37 99.74H87.95C89.01 99.74 89.53 100.27 89.53 101.32V121.62C89.53 123.51 89.21 125.22 88.57 126.76C87.93 128.3 87.03 129.62 85.86 130.72C84.69 131.82 83.29 132.68 81.66 133.29C80.03 133.9 78.22 134.2 76.24 134.2C74.26 134.2 72.44 133.9 70.79 133.29C69.14 132.68 67.73 131.83 66.57 130.72C65.4 129.62 64.5 128.3 63.86 126.76C63.22 125.22 62.9 123.51 62.9 121.62V101.32H62.91Z" fill="white"/>
<path d="M97.75 101.32C97.75 100.26 98.28 99.74 99.33 99.74H101.15C101.98 99.74 102.62 100.09 103.07 100.8L117.52 121.77C117.81 122.22 118.12 122.72 118.46 123.28C118.8 123.84 119.09 124.38 119.35 124.89C119.67 125.47 119.99 126.06 120.31 126.67H120.41C120.35 126.09 120.3 125.52 120.27 124.94C120.21 124.43 120.17 123.89 120.15 123.33C120.13 122.77 120.13 122.25 120.13 121.77V101.33C120.13 100.27 120.66 99.75 121.71 99.75H123.25C124.31 99.75 124.83 100.28 124.83 101.33V132.04C124.83 133.1 124.3 133.62 123.25 133.62H121.43C120.57 133.62 119.94 133.27 119.56 132.56L105.07 111.64C104.75 111.19 104.43 110.68 104.11 110.1C103.79 109.52 103.5 108.98 103.25 108.47C102.93 107.89 102.61 107.3 102.29 106.69H102.19C102.22 107.3 102.27 107.89 102.33 108.47C102.36 108.98 102.39 109.52 102.43 110.08C102.46 110.64 102.48 111.16 102.48 111.64V132.04C102.48 133.1 101.95 133.62 100.9 133.62H99.36C98.3 133.62 97.78 133.09 97.78 132.04V101.33L97.75 101.32Z" fill="white"/>
<path d="M133.46 101.32C133.46 100.26 133.99 99.74 135.04 99.74H144.69C147.28 99.74 149.63 100.12 151.74 100.87C153.85 101.62 155.66 102.72 157.16 104.16C158.66 105.6 159.82 107.37 160.64 109.46C161.46 111.56 161.86 113.95 161.86 116.63C161.86 119.31 161.45 121.72 160.64 123.83C159.83 125.94 158.66 127.72 157.16 129.16C155.66 130.6 153.85 131.7 151.74 132.47C149.63 133.24 147.28 133.62 144.69 133.62H135.04C133.98 133.62 133.46 133.09 133.46 132.04V101.33V101.32ZM144.35 129.49C146.27 129.49 148 129.21 149.56 128.65C151.11 128.09 152.44 127.27 153.54 126.18C154.64 125.09 155.49 123.75 156.08 122.15C156.67 120.55 156.97 118.71 156.97 116.63C156.97 114.55 156.67 112.72 156.06 111.14C155.45 109.56 154.6 108.22 153.49 107.13C152.39 106.04 151.06 105.23 149.51 104.68C147.96 104.14 146.24 103.86 144.35 103.86H138.16V129.49H144.35Z" fill="white"/>
<path d="M175.79 101.03C176.08 100.17 176.67 99.73 177.57 99.73H179.87C180.77 99.73 181.36 100.16 181.65 101.03L192.78 131.79C192.97 132.33 192.95 132.77 192.71 133.11C192.47 133.45 192.06 133.61 191.49 133.61H189.86C188.96 133.61 188.37 133.18 188.08 132.31L185.06 123.86H172.29L169.31 132.31C169.05 133.17 168.48 133.61 167.58 133.61H165.95C165.34 133.61 164.93 133.44 164.7 133.11C164.48 132.77 164.46 132.33 164.65 131.79L175.78 101.03H175.79ZM183.8 119.94L180.06 109.19C179.9 108.74 179.75 108.25 179.6 107.73C179.45 107.21 179.32 106.68 179.19 106.17C179.06 105.59 178.92 105 178.76 104.39H178.66C178.47 105 178.31 105.59 178.18 106.17C178.02 106.68 177.88 107.2 177.75 107.73C177.62 108.26 177.48 108.75 177.32 109.19L173.53 119.94H183.8Z" fill="white"/>
<path d="M202.47 103.86H192.39C191.33 103.86 190.81 103.33 190.81 102.28V101.32C190.81 100.26 191.34 99.74 192.39 99.74H217.25C218.27 99.74 218.79 100.27 218.79 101.32V102.28C218.79 103.34 218.28 103.86 217.25 103.86H207.17V132.03C207.17 133.09 206.64 133.61 205.59 133.61H204.01C202.99 133.61 202.47 133.08 202.47 132.03V103.86Z" fill="white"/>
<path d="M223.39 101.32C223.39 100.26 223.92 99.74 224.97 99.74H226.51C227.57 99.74 228.09 100.27 228.09 101.32V132.03C228.09 133.09 227.56 133.61 226.51 133.61H224.97C223.91 133.61 223.39 133.08 223.39 132.03V101.32Z" fill="white"/>
<path d="M234.57 116.44C234.57 114.01 235 111.74 235.87 109.63C236.73 107.52 237.94 105.69 239.49 104.14C241.04 102.59 242.88 101.37 245.01 100.49C247.14 99.61 249.46 99.17 251.99 99.17C254.52 99.17 256.84 99.61 258.97 100.49C261.1 101.37 262.93 102.59 264.46 104.14C266 105.69 267.2 107.52 268.06 109.63C268.92 111.74 269.36 114.01 269.36 116.44C269.36 118.87 268.93 121.26 268.06 123.42C267.2 125.58 266 127.46 264.46 129.06C262.92 130.66 261.09 131.92 258.97 132.83C256.84 133.74 254.51 134.2 251.99 134.2C249.47 134.2 247.14 133.74 245.01 132.83C242.88 131.92 241.04 130.66 239.49 129.06C237.94 127.46 236.73 125.58 235.87 123.42C235.01 121.26 234.57 118.93 234.57 116.44ZM239.47 116.44C239.47 118.33 239.78 120.09 240.41 121.72C241.03 123.35 241.9 124.77 243.03 125.97C244.15 127.17 245.48 128.11 247.01 128.8C248.55 129.49 250.21 129.83 252 129.83C253.79 129.83 255.46 129.49 256.99 128.8C258.53 128.11 259.85 127.17 260.95 125.97C262.05 124.77 262.92 123.35 263.54 121.72C264.16 120.09 264.48 118.33 264.48 116.44C264.48 114.55 264.17 112.91 263.54 111.33C262.92 109.75 262.05 108.38 260.95 107.23C259.85 106.08 258.53 105.17 256.99 104.52C255.45 103.86 253.79 103.54 252 103.54C250.21 103.54 248.54 103.87 247.01 104.52C245.47 105.18 244.15 106.08 243.03 107.23C241.91 108.38 241.04 109.75 240.41 111.33C239.79 112.91 239.47 114.62 239.47 116.44Z" fill="white"/>
<path d="M275.84 101.32C275.84 100.26 276.37 99.74 277.42 99.74H279.24C280.07 99.74 280.71 100.09 281.16 100.8L295.61 121.77C295.9 122.22 296.21 122.72 296.55 123.28C296.89 123.84 297.18 124.38 297.44 124.89C297.76 125.47 298.08 126.06 298.4 126.67H298.5C298.44 126.09 298.39 125.52 298.36 124.94C298.3 124.43 298.26 123.89 298.24 123.33C298.22 122.77 298.22 122.25 298.22 121.77V101.33C298.22 100.27 298.75 99.75 299.8 99.75H301.34C302.4 99.75 302.92 100.28 302.92 101.33V132.04C302.92 133.1 302.39 133.62 301.34 133.62H299.52C298.66 133.62 298.03 133.27 297.65 132.56L283.16 111.64C282.84 111.19 282.52 110.68 282.2 110.1C281.88 109.52 281.59 108.98 281.34 108.47C281.02 107.89 280.7 107.3 280.38 106.69H280.28C280.31 107.3 280.36 107.89 280.42 108.47C280.45 108.98 280.48 109.52 280.52 110.08C280.55 110.64 280.57 111.16 280.57 111.64V132.04C280.57 133.1 280.04 133.62 278.99 133.62H277.45C276.39 133.62 275.87 133.09 275.87 132.04V101.33L275.84 101.32Z" fill="white"/>
</g>
<defs>
<clipPath id="clip0_8_2">
<rect width="302.91" height="134.19" fill="white"/>
</clipPath>
</defs>
</svg>
