<svg id="alpha-logo" data-name="alpha-logo" xmlns="http://www.w3.org/2000/svg" viewBox="0 0 432.31 432.31" height="432" width="432"><style>.alpha-circle {fill: #fc3065;}.alpha-letters {fill: #fff;}</style>
<circle class="alpha-circle" cx="216.15" cy="216.15" r="216.15"></circle>
<path class="alpha-letters" d="M223,283.31h-10.8L194.51,233c-1.32-3.83-2.73-9.79-2.73-9.79h-.2s-1.41,6-2.72,9.79L171,283.31H160.4l26.24-71.23h10Z M230.72,212.08h10v62.55h31.88v8.68H230.72Z M281.57,212.08h26c13,0,22.4,8.77,22.4,22.29S320.62,257,307.6,257h-16v26.34h-10ZM306,248.3c8.57,0,13.82-5.35,13.82-13.93s-5.25-13.62-13.72-13.62H291.56V248.3Z M340.29,212.08h10v31.27H387.2V212.08h10v71.23h-10V252H350.27v31.28h-10Z M467.51,283.31h-10.8L439.06,233c-1.31-3.83-2.73-9.79-2.73-9.79h-.2s-1.41,6-2.72,9.79l-17.86,50.35H405l26.23-71.23h10Z" transform="translate(-97.22 -27.65)"></path></svg>