<svg fill="none" height="35" viewBox="0 0 83 35" width="83" xmlns="http://www.w3.org/2000/svg"><path d="m72.08 31.06c.94-2.41 1.66-4.83 2.19-7.28.52-2.45.78-4.9.78-7.36 0-2.25-.24-4.48-.72-6.69999-.48-2.22001-1.2-4.39001-2.17-6.5-.45-.94001-.54-1.68001-.24-2.250005.29-.56.95-.84 1.97-.84h1.32c.72 0 1.34.13 1.85.4s.95.719995 1.32 1.359995c1.31 2.27 2.31 4.62 2.99 7.04001.68 2.41999 1.02 4.92999 1.02 7.51999 0 3.05-.35 5.92-1.06 8.6-.71 2.69-1.7 5.18-2.99 7.48-.7 1.18-1.72 1.77-3.09 1.77h-1.32c-1.02 0-1.68-.29-2.01-.88-.32-.59-.27-1.38.16-2.37z" fill="#29235c"/><path d="m30.31 17.62c0-1.57.28-3.03.84-4.39s1.34-2.54 2.34-3.54001c1-1 2.19-1.78 3.56-2.35s2.87-.85 4.5-.85 3.13.28 4.5.85 2.55 1.35 3.54 2.35c.99 1.00001 1.76 2.18001 2.32 3.54001s.84 2.83.84 4.39-.28 3.11-.84 4.5-1.33 2.6-2.32 3.64c-.99 1.03-2.17 1.84-3.54 2.43s-2.87.88-4.5.88-3.13-.29-4.5-.88-2.56-1.4-3.56-2.43-1.78-2.24-2.34-3.64c-.56-1.39-.84-2.89-.84-4.5zm3.16 0c0 1.22.2 2.35.6 3.4s.96 1.97 1.69 2.74c.72.77 1.58 1.38 2.57 1.83.99.44 2.06.67 3.22.67s2.23-.22 3.22-.67c.99-.44 1.84-1.05 2.55-1.83.71-.77 1.27-1.69 1.67-2.74s.6-2.19.6-3.4-.2-2.27-.6-3.3c-.4-1.02-.96-1.9-1.67-2.65-.71-.74-1.56-1.33-2.55-1.75001-.99-.42-2.06-.63-3.22-.63s-2.23.21-3.22.63c-.99.42001-1.85 1.01001-2.57 1.75001s-1.28 1.62-1.69 2.65c-.4 1.02-.6 2.12-.6 3.3z" fill="#c6c6c6"/><path d="m4.79002 32.61c-1.34-2.35-2.37-4.89-3.11-7.6-.740004-2.71-1.100003-5.61-1.100003-8.69 0-2.59.350001-5.1 1.040003-7.52.7-2.42 1.68999-4.77 2.96999-7.04.37-.64.82001-1.1 1.32001-1.36.51-.27 1.12-.4 1.85-.4h1.15999c1.04 0 1.72999.28 2.06999.84.33.56.27 1.31-.18 2.25-.93999 2.11-1.64998 4.28-2.14998 6.5-.49 2.22-.74001 4.45-.74001 6.7 0 2.51.26 5 .78 7.46s1.29001 4.91 2.30999 7.34c.4.94.43 1.69.1 2.25s-1.01.84-2.02998.84h-1.32c-.72 0-1.32-.12-1.79-.36s-.86-.64-1.18-1.2z" fill="#29235c"/></svg>